<svg xmlns="http://www.w3.org/2000/svg" xmlns:xlink="http://www.w3.org/1999/xlink" contentStyleType="text/css" data-diagram-type="DESCRIPTION" height="751.0417px" preserveAspectRatio="none" style="width:2858px;height:751px;" version="1.1" viewBox="0 0 2858 751" width="2858.3333px" zoomAndPan="magnify"><title>As-Is Architecture (Before Service Mesh)</title><defs><linearGradient id="gghfmxa6s62t10" x1="50%" x2="50%" y1="0%" y2="100%"><stop offset="0%" stop-color="#B8B8B8"/><stop offset="100%" stop-color="#999999"/></linearGradient><linearGradient id="gghfmxa6s62t11" x1="50%" x2="50%" y1="0%" y2="100%"><stop offset="0%" stop-color="#B8B8B8"/><stop offset="100%" stop-color="#6B6B6B"/></linearGradient><linearGradient id="gghfmxa6s62t12" x1="50%" x2="50%" y1="0%" y2="100%"><stop offset="0%" stop-color="#7C9AB9"/><stop offset="100%" stop-color="#304D6D"/></linearGradient><linearGradient id="gghfmxa6s62t13" x1="50%" x2="50%" y1="0%" y2="100%"><stop offset="0%" stop-color="#70B8F7"/><stop offset="100%" stop-color="#246BAA"/></linearGradient></defs><g><g class="title" data-source-line="2"><rect fill="url(#gghfmxa6s62t10)" height="48.2361" rx="4.1667" ry="4.1667" style="stroke:#6B6B6B;stroke-width:1.0417;" width="504.6875" x="1172.3797" y="20.8333"/><text fill="#304D6D" font-family="'Verdana'" font-size="20.8333" font-weight="bold" lengthAdjust="spacing" textLength="481.7708" x="1183.838" y="53.2369">As-Is Architecture (Before Service Mesh)</text></g><!--cluster Edge--><g class="cluster" data-entity="Edge" data-source-line="9" data-uid="ent0003" id="cluster_Edge"><path d="M802.4794,200.938 C805.9257,194.3716 811.6435,194.9909 815.6823,200.2782 C819.7995,195.2785 823.5918,195.5583 827.2195,200.8282 C829.4993,194.6601 834.5458,192.7313 839.4143,198.0893 C843.2101,191.9892 849.4083,191.5129 853.0859,198.2156 C856.0422,192.7536 859.5425,191.2263 864.3259,196.2586 C869.399,190.1202 874.08,191.537 877.824,197.7151 C882.0031,192.6993 887.5388,193.5866 890.0833,199.5415 C894.1474,194.8373 898.4492,195.549 901.5859,200.6315 C905.8293,194.6308 910.206,194.2082 914.0593,201.0115 C923.0207,192.595 932.1064,195.9781 933.3333,208.2257 C933.4701,208.1402 933.6114,208.1585 933.6321,208.3507 C940.4815,211.3555 941.9439,217.1701 935.4539,221.9606 C940.9349,224.867 939.5162,229.6619 935.1775,232.306 C939.8827,235.9668 939.766,240.0951 935.1138,243.7036 C940.8608,246.8978 941.6833,251.3729 936.3475,255.7063 C941.8301,258.897 941.906,263.741 936.3575,266.9415 C941.4203,270.2554 942.3791,274.4049 936.6847,278.0361 C942.3649,282.0473 942.5258,287.1538 935.9954,290.4891 C939.3345,300.2633 937.8806,306.5364 926.0417,307.3507 C927.0465,306.9065 927.4895,307.298 927.575,308.3153 C924.466,313.6741 919.4546,314.3183 915.5299,309.2583 C913.4579,316.9825 908.8121,318.0826 903.1354,312.6557 C899.8473,319.0692 894.9642,320.1931 890.5483,313.7607 C887.3703,321.2184 881.9684,322.0113 877.1664,315.2938 C874.2658,321.7479 869.6955,323.2793 864.0626,318.4735 C859.5939,324.4066 853.7732,322.6727 851.7208,316.0907 C847.577,320.8097 842.2557,320.4529 839.2803,314.7023 C834.3529,319.6183 829.2739,319.5206 827.0436,312.04 C821.6524,317.6537 816.945,315.9167 814.0085,309.4017 C804.3121,315.3473 795.5829,311.1646 793.75,300.059 C795.0936,300.4407 795.2609,301.417 794.2654,302.3297 C786.7872,299.3926 786.6897,292.7213 793.1857,288.6788 C788.5956,286.2281 789.1849,281.3408 793.1378,278.8485 C788.3535,275.726 788.3996,269.8843 793.2568,266.8575 C788.1388,263.4733 788.0954,257.5045 793.624,254.435 C788.4933,251.4411 788.6773,246.688 794.1634,244.2566 C787.8368,240.6662 787.4928,236.3787 793.3516,231.9824 C789.528,228.3305 789.6276,224.7663 794.3075,221.9225 C786.4257,213.5599 790.497,203.3844 801.0417,200.934 C801.5403,200.2456 801.9844,200.3097 802.4794,200.938" fill="url(#gghfmxa6s62t11)" style="stroke:#446E9B;stroke-width:1.0417;"/><text fill="#333333" font-family="'Verdana'" font-size="12.5" font-weight="bold" lengthAdjust="spacing" textLength="125.5371" x="800.7731" y="223.9178">North-South Edge</text></g><!--cluster Cluster--><g class="cluster" data-entity="Cluster" data-source-line="13" data-uid="ent0005" id="cluster_Cluster"><rect fill="#ADD8E6" height="390.9792" rx="4.1667" ry="4.1667" style="stroke:#446E9B;stroke-width:2.0833;" width="1802.0833" x="17.7083" y="349.0173"/><text fill="#FFFFFF" font-family="'Verdana'" font-size="12.5" font-weight="bold" lengthAdjust="spacing" textLength="134.5337" x="851.4832" y="368.8761">Kubernetes Cluster</text><text fill="#FFFFFF" font-family="'Verdana'" font-size="12.5" font-weight="bold" lengthAdjust="spacing" textLength="127.4475" x="855.0262" y="384.0678">(no service mesh)</text></g><!--cluster OF--><g class="cluster" data-entity="OF" data-source-line="14" data-uid="ent0006" id="cluster_OF"><rect fill="#90EE90" height="123.0938" rx="4.1667" ry="4.1667" style="stroke:#446E9B;stroke-width:2.0833;" width="1727.0833" x="51.0417" y="426.1007"/><text fill="#FFFFFF" font-family="'Verdana'" font-size="12.5" font-weight="bold" lengthAdjust="spacing" textLength="158.197" x="835.4848" y="445.9595">Open Finance Services</text></g><!--cluster Data--><g class="cluster" data-entity="Data" data-source-line="24" data-uid="ent0014" id="cluster_Data"><rect fill="#D3D3D3" height="132.4687" rx="4.1667" ry="4.1667" style="stroke:#446E9B;stroke-width:2.0833;" width="945.8333" x="196.875" y="574.1944"/><text fill="#FFFFFF" font-family="'Verdana'" font-size="12.5" font-weight="bold" lengthAdjust="spacing" textLength="82.1289" x="628.7272" y="594.0532">Data Stores</text></g><!--cluster Obs--><g class="cluster" data-entity="Obs" data-source-line="32" data-uid="ent0020" id="cluster_Obs"><rect fill="#FFE4E1" height="107.9063" rx="4.1667" ry="4.1667" style="stroke:#446E9B;stroke-width:2.0833;" width="365.625" x="1167.7083" y="586.4757"/><text fill="#FFFFFF" font-family="'Verdana'" font-size="12.5" font-weight="bold" lengthAdjust="spacing" textLength="156.9092" x="1272.0662" y="606.3345">Observability (partial)</text></g><!--cluster External--><g class="cluster" data-entity="External" data-source-line="38" data-uid="ent0023" id="cluster_External"><path d="M2331.6619,598.7176 C2343.5723,581.2251 2354.3857,580.53 2366.8634,598.1489 C2376.3597,582.3797 2387.7158,577.7271 2401.4433,593.5119 C2414.863,575.9696 2427.4683,580.1218 2437.4501,597.0981 C2445.28,578.8371 2456.1508,577.5963 2469.2758,591.9276 C2482.1242,579.3155 2493.9576,581.1595 2502.9444,596.5677 C2515.1266,581.3226 2527.7829,576.9468 2540.1997,596.3153 C2548.0837,578.6414 2562.1795,580.1579 2572.3545,593.976 C2583.9529,576.1817 2597.0867,577.6465 2607.4156,595.2339 C2615.4822,577.898 2629.8244,580.6934 2639.3947,593.6463 C2651.8154,579.649 2662.5934,576.2894 2674.6641,594.0351 C2686.7083,578.8238 2699.3986,578.9403 2707.7768,597.6173 C2716.8775,577.9052 2734.9229,576.2938 2746.5813,595.0364 C2754.8405,581.5071 2770.3215,578.8479 2779.0824,594.4771 C2795.523,580.4914 2808.6732,578.5661 2817.7083,602.1007 C2820.4864,599.761 2822.8786,601.2296 2823.2892,604.469 C2841.2953,615.8033 2846.3218,630.3498 2826.9051,645.021 C2840.475,662.699 2832.7002,682.7795 2810.4167,686.0486 C2814.4985,684.9563 2815.6987,687.2243 2815.1733,690.7718 C2803.9943,706.3389 2786.4509,706.6768 2778.018,687.8088 C2770.3964,705.8183 2753.5995,708.2567 2742.183,691.7485 C2733.0586,706.5668 2716.829,708.3999 2708.47,690.9489 C2700.1703,707.7649 2687.0193,704.3285 2677.6983,692.0283 C2667.5268,710.1416 2654.9733,708.7397 2643.0556,693.8619 C2631.7582,712.2142 2618.6671,713.4452 2605.5345,695.7734 C2597.3651,710.0068 2582.7029,710.3445 2574.3622,695.96 C2563.4572,710.5198 2551.2912,708.8868 2542.2764,693.9069 C2527.4469,713.6703 2515.3533,712.1661 2502.3979,692.0336 C2494.5669,706.6946 2478.7338,710.5503 2469.7873,693.1688 C2459.2504,705.6208 2447.6813,704.4094 2439.0454,690.9164 C2428.1741,705.8247 2414.6248,707.1692 2403.8171,690.8447 C2393.3053,711.8162 2377.7377,710.5369 2364.7974,693.3265 C2344.9623,709.5848 2328.9642,702.1313 2322.9167,678.7569 C2325.4459,679.0011 2326.0906,680.3419 2325.246,682.6203 C2308.4099,672.2716 2304.1444,653.6943 2324.3532,642.5207 C2301.8934,624.7018 2306.2974,606.9373 2330.2083,594.809 C2332.2213,595.2245 2332.9083,597.09 2331.6619,598.7176" fill="url(#gghfmxa6s62t11)" style="stroke:#446E9B;stroke-width:1.0417;"/><text fill="#333333" font-family="'Verdana'" font-size="12.5" font-weight="bold" lengthAdjust="spacing" textLength="160.8215" x="2489.9017" y="617.7928">External Dependencies</text></g><!--entity APIGW--><g class="entity" data-entity="APIGW" data-source-line="10" data-uid="ent0004" id="entity_APIGW"><rect fill="#FFFFE0" height="61.6333" rx="4.1667" ry="4.1667" style="stroke:#304D6D;stroke-width:2.0833;" width="122.6685" x="802.2083" y="237.3923"/><text fill="#FFFFFF" font-family="'Verdana'" font-size="12.5" lengthAdjust="spacing" textLength="80.4443" x="817.8333" y="265.5845">API Gateway</text><text fill="#FFFFFF" font-family="'Verdana'" font-size="12.5" lengthAdjust="spacing" textLength="91.4185" x="817.8333" y="280.7761">(Kong/Apigee)</text></g><!--entity ConsentSvc--><g class="entity" data-entity="ConsentSvc" data-source-line="15" data-uid="ent0007" id="entity_ConsentSvc"><rect fill="url(#gghfmxa6s62t11)" height="61.6333" rx="4.1667" ry="4.1667" style="stroke:#304D6D;stroke-width:2.0833;" width="258.8196" x="1502.8854" y="470.8923"/><text fill="#FFFFFF" font-family="'Verdana'" font-size="12.5" lengthAdjust="spacing" textLength="202.9663" x="1518.5104" y="499.0845">Consent &amp; Authorization Service</text><text fill="#FFFFFF" font-family="'Verdana'" font-size="12.5" lengthAdjust="spacing" textLength="227.5696" x="1518.5104" y="514.2761">(FAPI, OAuth2, PKCE checks in app)</text></g><!--entity PersonalAisSvc--><g class="entity" data-entity="PersonalAisSvc" data-source-line="16" data-uid="ent0008" id="entity_PersonalAisSvc"><rect fill="url(#gghfmxa6s62t11)" height="61.6333" rx="4.1667" ry="4.1667" style="stroke:#304D6D;stroke-width:2.0833;" width="228.2043" x="483.8125" y="470.8923"/><text fill="#FFFFFF" font-family="'Verdana'" font-size="12.5" lengthAdjust="spacing" textLength="196.9543" x="499.4375" y="499.0845">Personal Financial Data Service</text><text fill="#FFFFFF" font-family="'Verdana'" font-size="12.5" lengthAdjust="spacing" textLength="73.5291" x="499.4375" y="514.2761">(AIS Retail)</text></g><!--entity CorporateAisSvc--><g class="entity" data-entity="CorporateAisSvc" data-source-line="17" data-uid="ent0009" id="entity_CorporateAisSvc"><rect fill="url(#gghfmxa6s62t11)" height="61.6333" rx="4.1667" ry="4.1667" style="stroke:#304D6D;stroke-width:2.0833;" width="229.7424" x="748.6667" y="470.8923"/><text fill="#FFFFFF" font-family="'Verdana'" font-size="12.5" lengthAdjust="spacing" textLength="198.4924" x="764.2917" y="499.0845">Business Financial Data Service</text><text fill="#FFFFFF" font-family="'Verdana'" font-size="12.5" lengthAdjust="spacing" textLength="100.3357" x="764.2917" y="514.2761">(AIS Corporate)</text></g><!--entity CopSvc--><g class="entity" data-entity="CopSvc" data-source-line="18" data-uid="ent0010" id="entity_CopSvc"><rect fill="url(#gghfmxa6s62t11)" height="46.4417" rx="4.1667" ry="4.1667" style="stroke:#304D6D;stroke-width:2.0833;" width="220.7642" x="1014.6146" y="478.4965"/><text fill="#FFFFFF" font-family="'Verdana'" font-size="12.5" lengthAdjust="spacing" textLength="189.5142" x="1030.2396" y="506.6886">Confirmation of Payee Service</text></g><!--entity MetadataSvc--><g class="entity" data-entity="MetadataSvc" data-source-line="19" data-uid="ent0011" id="entity_MetadataSvc"><rect fill="url(#gghfmxa6s62t11)" height="46.4417" rx="4.1667" ry="4.1667" style="stroke:#304D6D;stroke-width:2.0833;" width="194.8059" x="1271.3438" y="478.4965"/><text fill="#FFFFFF" font-family="'Verdana'" font-size="12.5" lengthAdjust="spacing" textLength="163.5559" x="1286.9688" y="506.6886">Banking Metadata Service</text></g><!--entity ProductsSvc--><g class="entity" data-entity="ProductsSvc" data-source-line="20" data-uid="ent0012" id="entity_ProductsSvc"><rect fill="url(#gghfmxa6s62t11)" height="46.4417" rx="4.1667" ry="4.1667" style="stroke:#304D6D;stroke-width:2.0833;" width="173.2422" x="67.5417" y="478.4965"/><text fill="#FFFFFF" font-family="'Verdana'" font-size="12.5" lengthAdjust="spacing" textLength="141.9922" x="83.1667" y="506.6886">Open Products Service</text></g><!--entity AtmSvc--><g class="entity" data-entity="AtmSvc" data-source-line="21" data-uid="ent0013" id="entity_AtmSvc"><rect fill="url(#gghfmxa6s62t11)" height="46.4417" rx="4.1667" ry="4.1667" style="stroke:#304D6D;stroke-width:2.0833;" width="170.5322" x="277.2292" y="478.4965"/><text fill="#FFFFFF" font-family="'Verdana'" font-size="12.5" lengthAdjust="spacing" textLength="139.2822" x="292.8542" y="506.6886">ATM Directory Service</text></g><!--entity ConsentDb--><g class="entity" data-entity="ConsentDb" data-source-line="25" data-uid="ent0015" id="entity_ConsentDb"><path d="M961.5521,629.4028 C961.5521,618.9861 1043.7481,618.9861 1043.7481,618.9861 C1043.7481,618.9861 1125.9442,618.9861 1125.9442,629.4028 L1125.9442,679.5777 C1125.9442,689.9944 1043.7481,689.9944 1043.7481,689.9944 C1043.7481,689.9944 961.5521,689.9944 961.5521,679.5777 L961.5521,629.4028" fill="url(#gghfmxa6s62t12)" style="stroke:#304D6D;stroke-width:1.0417;"/><path d="M961.5521,629.4028 C961.5521,639.8194 1043.7481,639.8194 1043.7481,639.8194 C1043.7481,639.8194 1125.9442,639.8194 1125.9442,629.4028" fill="none" style="stroke:#304D6D;stroke-width:1.0417;"/><text fill="#FFFFFF" font-family="'Verdana'" font-size="12.5" lengthAdjust="spacing" textLength="89.2517" x="977.1771" y="661.7616">Consent Store</text><text fill="#FFFFFF" font-family="'Verdana'" font-size="12.5" lengthAdjust="spacing" textLength="133.1421" x="977.1771" y="676.9532">(in-memory adapter)</text></g><!--entity AisDb--><g class="entity" data-entity="AisDb" data-source-line="26" data-uid="ent0016" id="entity_AisDb"><path d="M391.4271,629.4028 C391.4271,618.9861 460.4182,618.9861 460.4182,618.9861 C460.4182,618.9861 529.4093,618.9861 529.4093,629.4028 L529.4093,679.5777 C529.4093,689.9944 460.4182,689.9944 460.4182,689.9944 C460.4182,689.9944 391.4271,689.9944 391.4271,679.5777 L391.4271,629.4028" fill="url(#gghfmxa6s62t12)" style="stroke:#304D6D;stroke-width:1.0417;"/><path d="M391.4271,629.4028 C391.4271,639.8194 460.4182,639.8194 460.4182,639.8194 C460.4182,639.8194 529.4093,639.8194 529.4093,629.4028" fill="none" style="stroke:#304D6D;stroke-width:1.0417;"/><text fill="#FFFFFF" font-family="'Verdana'" font-size="12.5" lengthAdjust="spacing" textLength="60.5835" x="407.0521" y="661.7616">AIS Store</text><text fill="#FFFFFF" font-family="'Verdana'" font-size="12.5" lengthAdjust="spacing" textLength="106.7322" x="407.0521" y="676.9532">(Mongo/adapter)</text></g><!--entity CopDb--><g class="entity" data-entity="CopDb" data-source-line="27" data-uid="ent0017" id="entity_CopDb"><path d="M565.5208,629.4028 C565.5208,618.9861 658.337,618.9861 658.337,618.9861 C658.337,618.9861 751.1532,618.9861 751.1532,629.4028 L751.1532,679.5777 C751.1532,689.9944 658.337,689.9944 658.337,689.9944 C658.337,689.9944 565.5208,689.9944 565.5208,679.5777 L565.5208,629.4028" fill="url(#gghfmxa6s62t12)" style="stroke:#304D6D;stroke-width:1.0417;"/><path d="M565.5208,629.4028 C565.5208,639.8194 658.337,639.8194 658.337,639.8194 C658.337,639.8194 751.1532,639.8194 751.1532,629.4028" fill="none" style="stroke:#304D6D;stroke-width:1.0417;"/><text fill="#FFFFFF" font-family="'Verdana'" font-size="12.5" lengthAdjust="spacing" textLength="85.8459" x="581.1458" y="661.7616">CoP Directory</text><text fill="#FFFFFF" font-family="'Verdana'" font-size="12.5" lengthAdjust="spacing" textLength="154.3823" x="581.1458" y="676.9532">(Mongo/Search adapter)</text></g><!--entity MetaDb--><g class="entity" data-entity="MetaDb" data-source-line="28" data-uid="ent0018" id="entity_MetaDb"><path d="M787.2604,629.4028 C787.2604,618.9861 856.2515,618.9861 856.2515,618.9861 C856.2515,618.9861 925.2426,618.9861 925.2426,629.4028 L925.2426,679.5777 C925.2426,689.9944 856.2515,689.9944 856.2515,689.9944 C856.2515,689.9944 787.2604,689.9944 787.2604,679.5777 L787.2604,629.4028" fill="url(#gghfmxa6s62t12)" style="stroke:#304D6D;stroke-width:1.0417;"/><path d="M787.2604,629.4028 C787.2604,639.8194 856.2515,639.8194 856.2515,639.8194 C856.2515,639.8194 925.2426,639.8194 925.2426,629.4028" fill="none" style="stroke:#304D6D;stroke-width:1.0417;"/><text fill="#FFFFFF" font-family="'Verdana'" font-size="12.5" lengthAdjust="spacing" textLength="96.3745" x="802.8854" y="661.7616">Metadata Store</text><text fill="#FFFFFF" font-family="'Verdana'" font-size="12.5" lengthAdjust="spacing" textLength="106.7322" x="802.8854" y="676.9532">(Mongo/adapter)</text></g><!--entity OpenDataCache--><g class="entity" data-entity="OpenDataCache" data-source-line="29" data-uid="ent0019" id="entity_OpenDataCache"><path d="M214.0208,629.4028 C214.0208,618.9861 284.37,618.9861 284.37,618.9861 C284.37,618.9861 354.7191,618.9861 354.7191,629.4028 L354.7191,679.5777 C354.7191,689.9944 284.37,689.9944 284.37,689.9944 C284.37,689.9944 214.0208,689.9944 214.0208,679.5777 L214.0208,629.4028" fill="url(#gghfmxa6s62t12)" style="stroke:#304D6D;stroke-width:1.0417;"/><path d="M214.0208,629.4028 C214.0208,639.8194 284.37,639.8194 284.37,639.8194 C284.37,639.8194 354.7191,639.8194 354.7191,629.4028" fill="none" style="stroke:#304D6D;stroke-width:1.0417;"/><text fill="#FFFFFF" font-family="'Verdana'" font-size="12.5" lengthAdjust="spacing" textLength="109.4482" x="229.6458" y="661.7616">Open Data Cache</text><text fill="#FFFFFF" font-family="'Verdana'" font-size="12.5" lengthAdjust="spacing" textLength="59.6497" x="229.6458" y="676.9532">(adapter)</text></g><!--entity LocalLogs--><g class="entity" data-entity="LocalLogs" data-source-line="33" data-uid="ent0021" id="entity_LocalLogs"><rect fill="url(#gghfmxa6s62t11)" height="46.4417" rx="4.1667" ry="4.1667" style="stroke:#304D6D;stroke-width:2.0833;" width="141.217" x="1375.2292" y="631.2673"/><text fill="#FFFFFF" font-family="'Verdana'" font-size="12.5" lengthAdjust="spacing" textLength="109.967" x="1390.8542" y="659.4595">Service-local logs</text></g><!--entity HealthChecks--><g class="entity" data-entity="HealthChecks" data-source-line="34" data-uid="ent0022" id="entity_HealthChecks"><rect fill="url(#gghfmxa6s62t11)" height="46.4417" rx="4.1667" ry="4.1667" style="stroke:#304D6D;stroke-width:2.0833;" width="153.9917" x="1184.4583" y="631.2673"/><text fill="#FFFFFF" font-family="'Verdana'" font-size="12.5" lengthAdjust="spacing" textLength="122.7417" x="1200.0833" y="659.4595">Basic health checks</text></g><!--entity CoreBanking--><g class="entity" data-entity="CoreBanking" data-source-line="39" data-uid="ent0024" id="entity_CoreBanking"><rect fill="url(#gghfmxa6s62t11)" height="46.4417" rx="4.1667" ry="4.1667" style="stroke:#304D6D;stroke-width:2.0833;" width="231.2195" x="2331.2604" y="631.2673"/><text fill="#FFFFFF" font-family="'Verdana'" font-size="12.5" lengthAdjust="spacing" textLength="199.9695" x="2346.8854" y="659.4595">Core Banking / Legacy Systems</text></g><!--entity ExternalApis--><g class="entity" data-entity="ExternalApis" data-source-line="40" data-uid="ent0025" id="entity_ExternalApis"><rect fill="url(#gghfmxa6s62t11)" height="46.4417" rx="4.1667" ry="4.1667" style="stroke:#304D6D;stroke-width:2.0833;" width="210.0525" x="2599.1354" y="631.2673"/><text fill="#FFFFFF" font-family="'Verdana'" font-size="12.5" lengthAdjust="spacing" textLength="178.8025" x="2614.7604" y="659.4595">FX, Payments, Registry APIs</text></g><!--entity Client--><g class="entity" data-entity="Client" data-source-line="7" data-uid="ent0002" id="entity_Client"><ellipse cx="863.544" cy="95.1111" fill="url(#gghfmxa6s62t12)" rx="8.3333" ry="8.3333" style="stroke:#304D6D;stroke-width:1.0417;"/><path d="M863.544,103.4444 L863.544,131.5694 M850.0024,111.7778 L877.0857,111.7778 M863.544,131.5694 L850.0024,147.1944 M863.544,131.5694 L877.0857,147.1944" fill="none" style="stroke:#304D6D;stroke-width:1.0417;"/><text fill="#FFFFFF" font-family="'Verdana'" font-size="12.5" lengthAdjust="spacing" textLength="127.2339" x="799.9271" y="167.0532">TPP / Internal Client</text></g><g class="entity" data-entity="GMN53" data-source-line="75" data-uid="ent0054" id="entity_GMN53"><path d="M1844.9271,617.8611 L1844.9271,691.1277 A4.1667,4.1667 0 0 0 1849.0938,695.2944 L2290.4959,695.2944 A4.1667,4.1667 0 0 0 2294.6626,691.1277 L2294.6626,624.1111 L2284.2459,613.6944 L1849.0938,613.6944 A4.1667,4.1667 0 0 0 1844.9271,617.8611" fill="url(#gghfmxa6s62t13)" style="stroke:#246BAA;stroke-width:1.0417;"/><path d="M2284.2459,613.6944 L2284.2459,622.0278 A2.0833,2.0833 0 0 0 2286.3293,624.1111 L2294.6626,624.1111 L2284.2459,613.6944" fill="url(#gghfmxa6s62t13)" style="stroke:#246BAA;stroke-width:1.0417;"/><text fill="#FFFFFF" font-family="'Verdana'" font-size="12.5" lengthAdjust="spacing" textLength="132.8918" x="1856.3854" y="636.6782">As-Is characteristics:</text><text fill="#FFFFFF" font-family="'Verdana'" font-size="12.5" lengthAdjust="spacing" textLength="373.7061" x="1856.3854" y="651.8699">- Security and policy checks are mostly in application code.</text><text fill="#FFFFFF" font-family="'Verdana'" font-size="12.5" lengthAdjust="spacing" textLength="417.4438" x="1856.3854" y="667.0615">- East-west traffic security/retry/timeout is not centrally enforced.</text><text fill="#FFFFFF" font-family="'Verdana'" font-size="12.5" lengthAdjust="spacing" textLength="393.6218" x="1856.3854" y="682.2532">- Observability and policy controls are uneven across services.</text></g><!--link Client to APIGW--><g class="link" data-entity-1="Client" data-entity-2="APIGW" data-source-line="43" data-uid="lnk26" id="link_Client_APIGW"><path d="M863.5417,175.0798 C863.5417,195.3715 863.5417,212.6111 863.5417,230.9236" fill="none" id="Client-to-APIGW" style="stroke:#446E9B;stroke-width:3.125;"/><polygon fill="#446E9B" points="863.5417,237.1736,867.7083,227.7986,863.5417,231.9653,859.375,227.7986,863.5417,237.1736" style="stroke:#446E9B;stroke-width:3.125;"/><text fill="#FFFFFF" font-family="'Verdana'" font-size="12.5" lengthAdjust="spacing" textLength="231.5491" x="626.0417" y="197.8553">HTTPS + OAuth2/DPoP/JWS headers</text></g><!--link APIGW to ConsentSvc--><g class="link" data-entity-1="APIGW" data-entity-2="ConsentSvc" data-source-line="44" data-uid="lnk27" id="link_APIGW_ConsentSvc"><path d="M925.1563,252.4965 C1107.5729,252.4965 1632.2917,252.4965 1632.2917,252.4965 C1632.2917,252.4965 1632.2917,397.6007 1632.2917,464.4028" fill="none" id="APIGW-to-ConsentSvc" style="stroke:#446E9B;stroke-width:3.125;"/><polygon fill="#446E9B" points="1632.2917,470.6528,1636.4583,461.2778,1632.2917,465.4444,1628.125,461.2778,1632.2917,470.6528" style="stroke:#446E9B;stroke-width:3.125;"/><text fill="#FFFFFF" font-family="'Verdana'" font-size="12.5" lengthAdjust="spacing" textLength="121.8384" x="1260.7188" y="244.2303">/open-finance/v1/*</text></g><!--link APIGW to PersonalAisSvc--><g class="link" data-entity-1="APIGW" data-entity-2="PersonalAisSvc" data-source-line="45" data-uid="lnk28" id="link_APIGW_PersonalAisSvc"><path d="M801.9375,283.7465 C723.4688,283.7465 597.9167,283.7465 597.9167,283.7465 C597.9167,283.7465 597.9167,403.9653 597.9167,464.2361" fill="none" id="APIGW-to-PersonalAisSvc" style="stroke:#446E9B;stroke-width:3.125;"/><polygon fill="#446E9B" points="597.9167,470.4861,602.0833,461.1111,597.9167,465.2778,593.75,461.1111,597.9167,470.4861" style="stroke:#446E9B;stroke-width:3.125;"/><text fill="#FFFFFF" font-family="'Verdana'" font-size="12.5" lengthAdjust="spacing" textLength="182.9102" x="418.0104" y="302.5636">/open-finance/v1/accounts...</text></g><!--link APIGW to CorporateAisSvc--><g class="link" data-entity-1="APIGW" data-entity-2="CorporateAisSvc" data-source-line="46" data-uid="lnk29" id="link_APIGW_CorporateAisSvc"><path d="M863.5417,299.2153 C863.5417,343.8715 863.5417,419.5903 863.5417,464.3298" fill="none" id="APIGW-to-CorporateAisSvc" style="stroke:#446E9B;stroke-width:3.125;"/><polygon fill="#446E9B" points="863.5417,470.5798,867.7083,461.2048,863.5417,465.3715,859.375,461.2048,863.5417,470.5798" style="stroke:#446E9B;stroke-width:3.125;"/><text fill="#FFFFFF" font-family="'Verdana'" font-size="12.5" lengthAdjust="spacing" textLength="187.5549" x="669.7917" y="403.7095">/open-finance/v1/corporate...</text></g><!--link APIGW to CopSvc--><g class="link" data-entity-1="APIGW" data-entity-2="CopSvc" data-source-line="47" data-uid="lnk30" id="link_APIGW_CopSvc"><path d="M925.1771,283.7465 C1002.4688,283.7465 1125,283.7465 1125,283.7465 C1125,283.7465 1125,415.2257 1125,471.7257" fill="none" id="APIGW-to-CopSvc" style="stroke:#446E9B;stroke-width:3.125;"/><polygon fill="#446E9B" points="1125,477.9757,1129.1667,468.6007,1125,472.7673,1120.8333,468.6007,1125,477.9757" style="stroke:#446E9B;stroke-width:3.125;"/><text fill="#FFFFFF" font-family="'Verdana'" font-size="12.5" lengthAdjust="spacing" textLength="267.1204" x="1128.4479" y="302.5636">/open-finance/v1/confirmation-of-payee/*</text></g><!--link APIGW to MetadataSvc--><g class="link" data-entity-1="APIGW" data-entity-2="MetadataSvc" data-source-line="48" data-uid="lnk31" id="link_APIGW_MetadataSvc"><path d="M924.9896,268.1215 C1059.625,268.1215 1368.75,268.1215 1368.75,268.1215 C1368.75,268.1215 1368.75,412.3923 1368.75,471.7778" fill="none" id="APIGW-to-MetadataSvc" style="stroke:#446E9B;stroke-width:3.125;"/><polygon fill="#446E9B" points="1368.75,478.0278,1372.9167,468.6528,1368.75,472.8194,1364.5833,468.6528,1368.75,478.0278" style="stroke:#446E9B;stroke-width:3.125;"/><text fill="#FFFFFF" font-family="'Verdana'" font-size="12.5" lengthAdjust="spacing" textLength="187.2986" x="1059.1146" y="259.8553">/open-finance/v1/metadata...</text></g><!--link APIGW to ProductsSvc--><g class="link" data-entity-1="APIGW" data-entity-2="ProductsSvc" data-source-line="49" data-uid="lnk32" id="link_APIGW_ProductsSvc"><path d="M801.8333,252.4965 C629.2396,252.4965 154.1667,252.4965 154.1667,252.4965 C154.1667,252.4965 154.1667,409.9757 154.1667,472.0173" fill="none" id="APIGW-to-ProductsSvc" style="stroke:#446E9B;stroke-width:3.125;"/><polygon fill="#446E9B" points="154.1667,478.2673,158.3333,468.8923,154.1667,473.059,150,468.8923,154.1667,478.2673" style="stroke:#446E9B;stroke-width:3.125;"/><text fill="#FFFFFF" font-family="'Verdana'" font-size="12.5" lengthAdjust="spacing" textLength="168.2495" x="191.1563" y="244.2303">/open-finance/v1/products</text></g><!--link APIGW to AtmSvc--><g class="link" data-entity-1="APIGW" data-entity-2="AtmSvc" data-source-line="50" data-uid="lnk33" id="link_APIGW_AtmSvc"><path d="M802.1042,268.1215 C668.3125,268.1215 362.5,268.1215 362.5,268.1215 C362.5,268.1215 362.5,412.3923 362.5,471.7778" fill="none" id="APIGW-to-AtmSvc" style="stroke:#446E9B;stroke-width:3.125;"/><polygon fill="#446E9B" points="362.5,478.0278,366.6667,468.6528,362.5,472.8194,358.3333,468.6528,362.5,478.0278" style="stroke:#446E9B;stroke-width:3.125;"/><text fill="#FFFFFF" font-family="'Verdana'" font-size="12.5" lengthAdjust="spacing" textLength="144.9951" x="483.5938" y="259.8553">/open-finance/v1/atms</text></g><!--link ConsentSvc to ConsentDb--><g class="link" data-entity-1="ConsentSvc" data-entity-2="ConsentDb" data-source-line="52" data-uid="lnk34" id="link_ConsentSvc_ConsentDb"><path d="M1507.4063,533.0278 C1507.4063,569.0694 1507.4063,623.3298 1507.4063,623.3298 C1507.4063,623.3298 1265.9271,623.3298 1132.625,623.3298" fill="none" id="ConsentSvc-to-ConsentDb" style="stroke:#446E9B;stroke-width:3.125;"/><polygon fill="#446E9B" points="1126.375,623.3298,1135.75,627.4965,1131.5833,623.3298,1135.75,619.1632,1126.375,623.3298" style="stroke:#446E9B;stroke-width:3.125;"/></g><!--link PersonalAisSvc to AisDb--><g class="link" data-entity-1="PersonalAisSvc" data-entity-2="AisDb" data-source-line="53" data-uid="lnk35" id="link_PersonalAisSvc_AisDb"><path d="M499.0104,532.9965 C499.0104,557.8819 499.0104,586.4548 499.0104,612.4444" fill="none" id="PersonalAisSvc-to-AisDb" style="stroke:#446E9B;stroke-width:3.125;"/><polygon fill="#446E9B" points="499.0104,618.6944,503.1771,609.3194,499.0104,613.4861,494.8438,609.3194,499.0104,618.6944" style="stroke:#446E9B;stroke-width:3.125;"/></g><!--link CorporateAisSvc to AisDb--><g class="link" data-entity-1="CorporateAisSvc" data-entity-2="AisDb" data-source-line="54" data-uid="lnk36" id="link_CorporateAisSvc_AisDb"><path d="M769.2083,532.9548 C769.2083,558.7153 769.2083,591.0382 769.2083,591.0382 C769.2083,591.0382 514.2083,591.0382 514.2083,591.0382 C514.2083,591.0382 514.2083,598.0382 514.2083,612.434" fill="none" id="CorporateAisSvc-to-AisDb" style="stroke:#446E9B;stroke-width:3.125;"/><polygon fill="#446E9B" points="514.2083,618.684,518.375,609.309,514.2083,613.4757,510.0417,609.309,514.2083,618.684" style="stroke:#446E9B;stroke-width:3.125;"/></g><!--link CopSvc to CopDb--><g class="link" data-entity-1="CopSvc" data-entity-2="CopDb" data-source-line="55" data-uid="lnk37" id="link_CopSvc_CopDb"><path d="M1070.2813,525.3507 C1070.2813,554.2569 1070.2813,599.3715 1070.2813,599.3715 C1070.2813,599.3715 730.3438,599.3715 730.3438,599.3715 C730.3438,599.3715 730.3438,601.8715 730.3438,612.4028" fill="none" id="CopSvc-to-CopDb" style="stroke:#446E9B;stroke-width:3.125;"/><polygon fill="#446E9B" points="730.3438,618.6528,734.5104,609.2778,730.3438,613.4444,726.1771,609.2778,730.3438,618.6528" style="stroke:#446E9B;stroke-width:3.125;"/></g><!--link MetadataSvc to MetaDb--><g class="link" data-entity-1="MetadataSvc" data-entity-2="MetaDb" data-source-line="56" data-uid="lnk38" id="link_MetadataSvc_MetaDb"><path d="M1304.8958,525.2673 C1304.8958,556.2048 1304.8958,606.6632 1304.8958,606.6632 C1304.8958,606.6632 856.25,606.6632 856.25,606.6632 C856.25,606.6632 856.25,605.559 856.25,612.4861" fill="none" id="MetadataSvc-to-MetaDb" style="stroke:#446E9B;stroke-width:3.125;"/><polygon fill="#446E9B" points="856.25,618.7361,860.4167,609.3611,856.25,613.5278,852.0833,609.3611,856.25,618.7361" style="stroke:#446E9B;stroke-width:3.125;"/></g><!--link ProductsSvc to OpenDataCache--><g class="link" data-entity-1="ProductsSvc" data-entity-2="OpenDataCache" data-source-line="57" data-uid="lnk39" id="link_ProductsSvc_OpenDataCache"><path d="M222.9479,525.2465 C222.9479,550.1944 222.9479,583.6319 222.9479,612.4548" fill="none" id="ProductsSvc-to-OpenDataCache" style="stroke:#446E9B;stroke-width:3.125;"/><polygon fill="#446E9B" points="222.9479,618.7048,227.1146,609.3298,222.9479,613.4965,218.7813,609.3298,222.9479,618.7048" style="stroke:#446E9B;stroke-width:3.125;"/></g><!--link AtmSvc to OpenDataCache--><g class="link" data-entity-1="AtmSvc" data-entity-2="OpenDataCache" data-source-line="58" data-uid="lnk40" id="link_AtmSvc_OpenDataCache"><path d="M315.9792,525.2465 C315.9792,550.1944 315.9792,583.6319 315.9792,612.4548" fill="none" id="AtmSvc-to-OpenDataCache" style="stroke:#446E9B;stroke-width:3.125;"/><polygon fill="#446E9B" points="315.9792,618.7048,320.1458,609.3298,315.9792,613.4965,311.8125,609.3298,315.9792,618.7048" style="stroke:#446E9B;stroke-width:3.125;"/></g><!--link PersonalAisSvc to CoreBanking--><g class="link" data-entity-1="PersonalAisSvc" data-entity-2="CoreBanking" data-source-line="60" data-uid="lnk41" id="link_PersonalAisSvc_CoreBanking"><path d="M663.1875,532.8507 C663.1875,547.5278 663.1875,561.8715 663.1875,561.8715 C663.1875,561.8715 2377.5104,561.8715 2377.5104,561.8715 C2377.5104,561.8715 2377.5104,597.434 2377.5104,624.8715" fill="none" id="PersonalAisSvc-to-CoreBanking" style="stroke:#446E9B;stroke-width:3.125;"/><polygon fill="#446E9B" points="2377.5104,631.1215,2381.6771,621.7465,2377.5104,625.9132,2373.3438,621.7465,2377.5104,631.1215" style="stroke:#446E9B;stroke-width:3.125;"/></g><!--link CorporateAisSvc to CoreBanking--><g class="link" data-entity-1="CorporateAisSvc" data-entity-2="CoreBanking" data-source-line="61" data-uid="lnk42" id="link_CorporateAisSvc_CoreBanking"><path d="M969.9792,532.7673 C969.9792,544.2778 969.9792,554.5798 969.9792,554.5798 C969.9792,554.5798 2423.75,554.5798 2423.75,554.5798 C2423.75,554.5798 2423.75,595.0173 2423.75,624.5694" fill="none" id="CorporateAisSvc-to-CoreBanking" style="stroke:#446E9B;stroke-width:3.125;"/><polygon fill="#446E9B" points="2423.75,630.8194,2427.9167,621.4444,2423.75,625.6111,2419.5833,621.4444,2423.75,630.8194" style="stroke:#446E9B;stroke-width:3.125;"/></g><!--link CopSvc to CoreBanking--><g class="link" data-entity-1="CopSvc" data-entity-2="CoreBanking" data-source-line="62" data-uid="lnk43" id="link_CopSvc_CoreBanking"><path d="M1215.0104,525.2986 C1215.0104,536.4236 1215.0104,547.2882 1215.0104,547.2882 C1215.0104,547.2882 2470,547.2882 2470,547.2882 C2470,547.2882 2470,593.1632 2470,624.7153" fill="none" id="CopSvc-to-CoreBanking" style="stroke:#446E9B;stroke-width:3.125;"/><polygon fill="#446E9B" points="2470,630.9653,2474.1667,621.5903,2470,625.7569,2465.8333,621.5903,2470,630.9653" style="stroke:#446E9B;stroke-width:3.125;"/></g><!--link MetadataSvc to CoreBanking--><g class="link" data-entity-1="MetadataSvc" data-entity-2="CoreBanking" data-source-line="63" data-uid="lnk44" id="link_MetadataSvc_CoreBanking"><path d="M1451,525.309 C1451,533.184 1451,539.9965 1451,539.9965 C1451,539.9965 2516.2396,539.9965 2516.2396,539.9965 C2516.2396,539.9965 2516.2396,590.9861 2516.2396,624.5173" fill="none" id="MetadataSvc-to-CoreBanking" style="stroke:#446E9B;stroke-width:3.125;"/><polygon fill="#446E9B" points="2516.2396,630.7673,2520.4063,621.3923,2516.2396,625.559,2512.0729,621.3923,2516.2396,630.7673" style="stroke:#446E9B;stroke-width:3.125;"/></g><!--link ConsentSvc to ExternalApis--><g class="link" data-entity-1="ConsentSvc" data-entity-2="ExternalApis" data-source-line="64" data-uid="lnk45" id="link_ConsentSvc_ExternalApis"><path d="M1762.1146,518.1215 C2047.4896,518.1215 2704.1667,518.1215 2704.1667,518.1215 C2704.1667,518.1215 2704.1667,585.809 2704.1667,624.7986" fill="none" id="ConsentSvc-to-ExternalApis" style="stroke:#446E9B;stroke-width:3.125;"/><polygon fill="#446E9B" points="2704.1667,631.0486,2708.3333,621.6736,2704.1667,625.8403,2700,621.6736,2704.1667,631.0486" style="stroke:#446E9B;stroke-width:3.125;"/></g><!--link ConsentSvc to LocalLogs--><g class="link" data-entity-1="ConsentSvc" data-entity-2="LocalLogs" data-source-line="66" data-uid="lnk46" id="link_ConsentSvc_LocalLogs"><path d="M1511.9167,532.9965 C1511.9167,562.1528 1511.9167,598.7257 1511.9167,624.9757" fill="none" id="ConsentSvc-to-LocalLogs" style="stroke:#446E9B;stroke-width:3.125;"/><polygon fill="#446E9B" points="1511.9167,631.2257,1516.0833,621.8507,1511.9167,626.0173,1507.75,621.8507,1511.9167,631.2257" style="stroke:#446E9B;stroke-width:3.125;"/></g><!--link PersonalAisSvc to LocalLogs--><g class="link" data-entity-1="PersonalAisSvc" data-entity-2="LocalLogs" data-source-line="67" data-uid="lnk47" id="link_PersonalAisSvc_LocalLogs"><path d="M614.3542,532.6736 C614.3542,550.4028 614.3542,569.1632 614.3542,569.1632 C614.3542,569.1632 1390.375,569.1632 1390.375,569.1632 C1390.375,569.1632 1390.375,599.6632 1390.375,624.9236" fill="none" id="PersonalAisSvc-to-LocalLogs" style="stroke:#446E9B;stroke-width:3.125;"/><polygon fill="#446E9B" points="1390.375,631.1736,1394.5417,621.7986,1390.375,625.9653,1386.2083,621.7986,1390.375,631.1736" style="stroke:#446E9B;stroke-width:3.125;"/></g><!--link CorporateAisSvc to LocalLogs--><g class="link" data-entity-1="CorporateAisSvc" data-entity-2="LocalLogs" data-source-line="68" data-uid="lnk48" id="link_CorporateAisSvc_LocalLogs"><path d="M978.8125,529.5798 C1137.9583,529.5798 1405.5313,529.5798 1405.5313,529.5798 C1405.5313,529.5798 1405.5313,588.559 1405.5313,624.7465" fill="none" id="CorporateAisSvc-to-LocalLogs" style="stroke:#446E9B;stroke-width:3.125;"/><polygon fill="#446E9B" points="1405.5313,630.9965,1409.6979,621.6215,1405.5313,625.7882,1401.3646,621.6215,1405.5313,630.9965" style="stroke:#446E9B;stroke-width:3.125;"/></g><!--link CopSvc to LocalLogs--><g class="link" data-entity-1="CopSvc" data-entity-2="LocalLogs" data-source-line="69" data-uid="lnk49" id="link_CopSvc_LocalLogs"><path d="M1225.1979,525.1215 C1225.1979,526.5903 1225.1979,527.4965 1225.1979,527.4965 C1225.1979,527.4965 1420.6875,527.4965 1420.6875,527.4965 C1420.6875,527.4965 1420.6875,587.9236 1420.6875,624.6528" fill="none" id="CopSvc-to-LocalLogs" style="stroke:#446E9B;stroke-width:3.125;"/><polygon fill="#446E9B" points="1420.6875,630.9028,1424.8542,621.5278,1420.6875,625.6944,1416.5208,621.5278,1420.6875,630.9028" style="stroke:#446E9B;stroke-width:3.125;"/></g><!--link MetadataSvc to LocalLogs--><g class="link" data-entity-1="MetadataSvc" data-entity-2="LocalLogs" data-source-line="70" data-uid="lnk50" id="link_MetadataSvc_LocalLogs"><path d="M1435.8438,525.2465 C1435.8438,554.0486 1435.8438,596.2361 1435.8438,624.934" fill="none" id="MetadataSvc-to-LocalLogs" style="stroke:#446E9B;stroke-width:3.125;"/><polygon fill="#446E9B" points="1435.8438,631.184,1440.0104,621.809,1435.8438,625.9757,1431.6771,621.809,1435.8438,631.184" style="stroke:#446E9B;stroke-width:3.125;"/></g><!--link ProductsSvc to HealthChecks--><g class="link" data-entity-1="ProductsSvc" data-entity-2="HealthChecks" data-source-line="71" data-uid="lnk51" id="link_ProductsSvc_HealthChecks"><path d="M231.8646,525.4444 C231.8646,549.6632 231.8646,583.7465 231.8646,583.7465 C231.8646,583.7465 1194.6458,583.7465 1194.6458,583.7465 C1194.6458,583.7465 1194.6458,604.1007 1194.6458,624.684" fill="none" id="ProductsSvc-to-HealthChecks" style="stroke:#446E9B;stroke-width:3.125;"/><polygon fill="#446E9B" points="1194.6458,630.934,1198.8125,621.559,1194.6458,625.7257,1190.4792,621.559,1194.6458,630.934" style="stroke:#446E9B;stroke-width:3.125;"/></g><!--link AtmSvc to HealthChecks--><g class="link" data-entity-1="AtmSvc" data-entity-2="HealthChecks" data-source-line="72" data-uid="lnk52" id="link_AtmSvc_HealthChecks"><path d="M419.5938,525.3611 C419.5938,547.2569 419.5938,576.4548 419.5938,576.4548 C419.5938,576.4548 1204.8333,576.4548 1204.8333,576.4548 C1204.8333,576.4548 1204.8333,601.8403 1204.8333,624.8298" fill="none" id="AtmSvc-to-HealthChecks" style="stroke:#446E9B;stroke-width:3.125;"/><polygon fill="#446E9B" points="1204.8333,631.0798,1209,621.7048,1204.8333,625.8715,1200.6667,621.7048,1204.8333,631.0798" style="stroke:#446E9B;stroke-width:3.125;"/></g><!--link Cluster to GMN53--><g class="link" data-entity-1="Cluster" data-entity-2="GMN53" data-source-line="75" data-uid="lnk55" id="link_Cluster_GMN53"><path d="M1819.894,627.4965 C1820.0684,627.4965 1820.2452,627.4965 1820.4245,627.4965 C1826.1615,627.4965 1834.4063,627.4965 1844.4375,627.4965" fill="none" id="Cluster-GMN53" style="stroke:#446E9B;stroke-width:3.125;stroke-dasharray:7.2917,7.2917;"/></g><!--SRC=[VLR1RkCs4BthAwPUeCYsaONsk8S2NZlPJPCqGXrWU-Y5eiSo4OeKI2gfjjX_xr2YB57MzYI9Cs_uPZZpn1_S2Ii4MpEEaXM94quYR6nwPs5Z-4auvAun25SVyQZfkKVpAZZ28zhJ-oInBqBLpB0AAC8BAt7lMWfW2CLKAN7Y88L2rzO8shYJJXB6dJQmUivpoE1EEJIAITXAWSgjWDdmcYHSwkO0gpyyBjthnftWvb1Yv-DVuDy4nXrXjSdlu1Dp-CRQlzNLlLPbjgb5YVY-Wv3vqnTu9qLvSYrAgT-IRqaIwCFglYc82Jhq11fBj2Y8qc13ufLFFF3hp25K8PkUoJdIKuqAReLYYf_hPZlaqsq0bGR9nwEY3BPQMKeTVeGDPQkD-CgSq6e8GeHkAOjhUFBcNwyXlz_U03yXVx4W5B2w3WpxEFjNFjyXHsErhtVFJz3RZZassM5pjuS_qJ4X-rW3OYFiGhoFZQNZjVR_ussrgRMXendeXS_bcCJ-A4pLfwwFaBCMpuKC0UebBanHqvNKeeuT9YGwoB2uWElEApVwq71d8z2mk03QF3_2JlW5RTe8j75Lxq_TDUcAlYpa7NgX-nwwWRMX6Jp5Wjb9BtGGggDGQOMLtupogAd_egFU5JEuB_i0VQHHq5a4eyfVGBOw7rCwm_R8I0_cczONwB7gtz_L-rm0k_9trTWowcL2HXXlzjREU57LfyBF9ok45Aw5Ar8SHpqOa8M5TvMmhZNQukMqXKDBfURKjbAN_S4y-Cy7-hhiBoiud919Kg9-wZh0vsvbsorq1B-TjUlcdo1lEwGq3aWJ4ex_R9c9sDQBxT396JnWoJZrLqkAKzbXUZ0unD3Rlwxzh5JK3lQQPhYarAbTI37YBKaKhUVOwooawMz16p_0v-VdV0y_1u79ThdEiz-_x7tI1zA1fFVpY55Y29PfoYuzzfANlVwI_JJnZ0LaoPjnhXiYlLwlenqYbLW2yi5bZgo_2nYb9TN7jFRI4h6TwCHIW2gOumqdEh44geDvWkX5Oh4Ohh9qDcDv9zMcsPbLiulLpVAyN5DBFSRnWplDSSZPXvvauPVZoGkCBmrBbAOzkaGijjTBotEICIIgJjJOS-CupWiyH-CIowcrlboSCvpiDAjaf12JGaRhYT8EeT3EwSh_zi8rWsQylvRn4rsdEAtGM0jkFv0XfHyFRuoNFgOEK6ifI2p2XO2Ha5JQEjc6km4P-tygrmTST_0RPbtwXjQ1C-nu97cp8M1caCGZSw92kdc1i43qW5DX3PCK4XLT2paU-ZYn34-vQ09esRDf5BwIrZDEUco7YvLT9wICFZec_m40]--></g></svg>