<svg xmlns="http://www.w3.org/2000/svg" xmlns:xlink="http://www.w3.org/1999/xlink" contentStyleType="text/css" data-diagram-type="DESCRIPTION" height="654.1667px" preserveAspectRatio="none" style="width:2253px;height:654px;" version="1.1" viewBox="0 0 2253 654" width="2253.125px" zoomAndPan="magnify"><title>Enterprise Capability Map (Current vs Target)</title><defs><linearGradient id="gp93lsosywqgd0" x1="50%" x2="50%" y1="0%" y2="100%"><stop offset="0%" stop-color="#B8B8B8"/><stop offset="100%" stop-color="#999999"/></linearGradient><linearGradient id="gp93lsosywqgd1" x1="50%" x2="50%" y1="0%" y2="100%"><stop offset="0%" stop-color="#B8B8B8"/><stop offset="100%" stop-color="#6B6B6B"/></linearGradient><linearGradient id="gp93lsosywqgd2" x1="50%" x2="50%" y1="0%" y2="100%"><stop offset="0%" stop-color="#70B8F7"/><stop offset="100%" stop-color="#246BAA"/></linearGradient></defs><g><g class="title" data-source-line="2"><rect fill="url(#gp93lsosywqgd0)" height="48.2361" rx="4.1667" ry="4.1667" style="stroke:#6B6B6B;stroke-width:1.0417;" width="557.9" x="843.429" y="20.8333"/><text fill="#304D6D" font-family="'Verdana'" font-size="20.8333" font-weight="bold" lengthAdjust="spacing" textLength="534.9833" x="854.8874" y="53.2369">Enterprise Capability Map (Current vs Target)</text></g><!--cluster L1Business--><g class="cluster" data-entity="L1Business" data-source-line="7" data-uid="ent0002" id="cluster_L1Business"><rect fill="#FFFFE0" height="107.8958" rx="4.1667" ry="4.1667" style="stroke:#446E9B;stroke-width:2.0833;" width="1253.125" x="234.375" y="87.8194"/><text fill="#FFFFFF" font-family="'Verdana'" font-size="12.5" font-weight="bold" lengthAdjust="spacing" textLength="169.2749" x="776.3" y="107.6782">L1 Business Capabilities</text></g><!--cluster L1Enabling--><g class="cluster" data-entity="L1Enabling" data-source-line="15" data-uid="ent0008" id="cluster_L1Enabling"><rect fill="#90EE90" height="123.0938" rx="4.1667" ry="4.1667" style="stroke:#446E9B;stroke-width:2.0833;" width="1411.4583" x="17.7083" y="220.7153"/><text fill="#FFFFFF" font-family="'Verdana'" font-size="12.5" font-weight="bold" lengthAdjust="spacing" textLength="167.8467" x="639.5142" y="240.5741">L1 Enabling Capabilities</text></g><!--cluster L1Gov--><g class="cluster" data-entity="L1Gov" data-source-line="24" data-uid="ent0015" id="cluster_L1Gov"><rect fill="#D3D3D3" height="107.9062" rx="4.1667" ry="4.1667" style="stroke:#446E9B;stroke-width:2.0833;" width="956.25" x="362.5" y="393.0694"/><text fill="#FFFFFF" font-family="'Verdana'" font-size="12.5" font-weight="bold" lengthAdjust="spacing" textLength="190.2954" x="745.4773" y="412.9282">L1 Governance Capabilities</text></g><!--cluster Maturity--><g class="cluster" data-entity="Maturity" data-source-line="31" data-uid="ent0020" id="cluster_Maturity"><rect fill="#FFE4E1" height="266.2813" rx="4.1667" ry="4.1667" style="stroke:#446E9B;stroke-width:2.0833;" width="320.8333" x="1352.0833" y="377.1423"/><text fill="#FFFFFF" font-family="'Verdana'" font-size="12.5" font-weight="bold" lengthAdjust="spacing" textLength="203.0029" x="1410.9985" y="397.0011">Capability Maturity Snapshot</text></g><!--entity CapCustomer--><g class="entity" data-entity="CapCustomer" data-source-line="8" data-uid="ent0003" id="entity_CapCustomer"><rect fill="url(#gp93lsosywqgd1)" height="46.4417" rx="4.1667" ry="4.1667" style="stroke:#304D6D;stroke-width:2.0833;" width="244.3359" x="762.2083" y="132.6111"/><text fill="#FFFFFF" font-family="'Verdana'" font-size="12.5" lengthAdjust="spacing" textLength="213.0859" x="777.8333" y="160.8032">Customer &amp; Identity Management</text></g><!--entity CapOpenFinance--><g class="entity" data-entity="CapOpenFinance" data-source-line="9" data-uid="ent0004" id="entity_CapOpenFinance"><rect fill="url(#gp93lsosywqgd1)" height="46.4417" rx="4.1667" ry="4.1667" style="stroke:#304D6D;stroke-width:2.0833;" width="203.3142" x="251.4688" y="132.6111"/><text fill="#FFFFFF" font-family="'Verdana'" font-size="12.5" lengthAdjust="spacing" textLength="172.0642" x="267.0938" y="160.8032">Open Finance Data Sharing</text></g><!--entity CapPayments--><g class="entity" data-entity="CapPayments" data-source-line="10" data-uid="ent0005" id="entity_CapPayments"><rect fill="url(#gp93lsosywqgd1)" height="46.4417" rx="4.1667" ry="4.1667" style="stroke:#304D6D;stroke-width:2.0833;" width="233.8745" x="491.3958" y="132.6111"/><text fill="#FFFFFF" font-family="'Verdana'" font-size="12.5" lengthAdjust="spacing" textLength="202.6245" x="507.0208" y="160.8032">Payment Initiation &amp; Settlement</text></g><!--entity CapLending--><g class="entity" data-entity="CapLending" data-source-line="11" data-uid="ent0006" id="entity_CapLending"><rect fill="url(#gp93lsosywqgd1)" height="46.4417" rx="4.1667" ry="4.1667" style="stroke:#304D6D;stroke-width:2.0833;" width="193.927" x="1042.625" y="132.6111"/><text fill="#FFFFFF" font-family="'Verdana'" font-size="12.5" lengthAdjust="spacing" textLength="162.677" x="1058.25" y="160.8032">Lending &amp; Credit Lifecycle</text></g><!--entity CapCompliance--><g class="entity" data-entity="CapCompliance" data-source-line="12" data-uid="ent0007" id="entity_CapCompliance"><rect fill="url(#gp93lsosywqgd1)" height="46.4417" rx="4.1667" ry="4.1667" style="stroke:#304D6D;stroke-width:2.0833;" width="197.5464" x="1273.1042" y="132.6111"/><text fill="#FFFFFF" font-family="'Verdana'" font-size="12.5" lengthAdjust="spacing" textLength="166.2964" x="1288.7292" y="160.8032">Compliance &amp; Risk Control</text></g><!--entity CapAAA--><g class="entity" data-entity="CapAAA" data-source-line="16" data-uid="ent0009" id="entity_CapAAA"><rect fill="url(#gp93lsosywqgd1)" height="61.6333" rx="4.1667" ry="4.1667" style="stroke:#304D6D;stroke-width:2.0833;" width="201.5442" x="771.1042" y="265.5069"/><text fill="#FFFFFF" font-family="'Verdana'" font-size="12.5" lengthAdjust="spacing" textLength="166.2659" x="786.7292" y="293.6991">Identity &amp; Access Platform</text><text fill="#FFFFFF" font-family="'Verdana'" font-size="12.5" lengthAdjust="spacing" textLength="170.2942" x="786.7292" y="308.8907">(Keycloak + LDAP + DPoP)</text></g><!--entity CapAPI--><g class="entity" data-entity="CapAPI" data-source-line="17" data-uid="ent0010" id="entity_CapAPI"><rect fill="url(#gp93lsosywqgd1)" height="61.6333" rx="4.1667" ry="4.1667" style="stroke:#304D6D;stroke-width:2.0833;" width="197.76" x="273" y="265.5069"/><text fill="#FFFFFF" font-family="'Verdana'" font-size="12.5" lengthAdjust="spacing" textLength="166.51" x="288.625" y="293.6991">API &amp; Integration Platform</text><text fill="#FFFFFF" font-family="'Verdana'" font-size="12.5" lengthAdjust="spacing" textLength="157.3975" x="288.625" y="308.8907">(Gateway + PAR + FAPI)</text></g><!--entity CapMesh--><g class="entity" data-entity="CapMesh" data-source-line="18" data-uid="ent0011" id="entity_CapMesh"><rect fill="url(#gp93lsosywqgd1)" height="46.4417" rx="4.1667" ry="4.1667" style="stroke:#304D6D;stroke-width:2.0833;" width="226.9226" x="507.375" y="273.1111"/><text fill="#FFFFFF" font-family="'Verdana'" font-size="12.5" lengthAdjust="spacing" textLength="195.6726" x="523" y="301.3032">Service Mesh Security Runtime</text></g><!--entity CapData--><g class="entity" data-entity="CapData" data-source-line="19" data-uid="ent0012" id="entity_CapData"><rect fill="url(#gp93lsosywqgd1)" height="46.4417" rx="4.1667" ry="4.1667" style="stroke:#304D6D;stroke-width:2.0833;" width="210.7056" x="1009.2292" y="273.1111"/><text fill="#FFFFFF" font-family="'Verdana'" font-size="12.5" lengthAdjust="spacing" textLength="179.4556" x="1024.8542" y="301.3032">Data Platform &amp; Governance</text></g><!--entity CapObs--><g class="entity" data-entity="CapObs" data-source-line="20" data-uid="ent0013" id="entity_CapObs"><rect fill="url(#gp93lsosywqgd1)" height="46.4417" rx="4.1667" ry="4.1667" style="stroke:#304D6D;stroke-width:2.0833;" width="156.488" x="1256.1354" y="273.1111"/><text fill="#FFFFFF" font-family="'Verdana'" font-size="12.5" lengthAdjust="spacing" textLength="125.238" x="1271.7604" y="301.3032">Observability &amp; SRE</text></g><!--entity CapDevSecOps--><g class="entity" data-entity="CapDevSecOps" data-source-line="21" data-uid="ent0014" id="entity_CapDevSecOps"><rect fill="url(#gp93lsosywqgd1)" height="46.4417" rx="4.1667" ry="4.1667" style="stroke:#304D6D;stroke-width:2.0833;" width="202.9785" x="33.9271" y="273.1111"/><text fill="#FFFFFF" font-family="'Verdana'" font-size="12.5" lengthAdjust="spacing" textLength="171.7285" x="49.5521" y="301.3032">DevSecOps &amp; Supply Chain</text></g><!--entity CapArchGov--><g class="entity" data-entity="CapArchGov" data-source-line="25" data-uid="ent0016" id="entity_CapArchGov"><rect fill="url(#gp93lsosywqgd1)" height="46.4417" rx="4.1667" ry="4.1667" style="stroke:#304D6D;stroke-width:2.0833;" width="186.6211" x="883.7708" y="437.8611"/><text fill="#FFFFFF" font-family="'Verdana'" font-size="12.5" lengthAdjust="spacing" textLength="155.3711" x="899.3958" y="466.0532">Architecture Governance</text></g><!--entity CapPolicy--><g class="entity" data-entity="CapPolicy" data-source-line="26" data-uid="ent0017" id="entity_CapPolicy"><rect fill="url(#gp93lsosywqgd1)" height="46.4417" rx="4.1667" ry="4.1667" style="stroke:#304D6D;stroke-width:2.0833;" width="203.2043" x="644.2292" y="437.8611"/><text fill="#FFFFFF" font-family="'Verdana'" font-size="12.5" lengthAdjust="spacing" textLength="171.9543" x="659.8542" y="466.0532">Policy-as-Code Governance</text></g><!--entity CapAudit--><g class="entity" data-entity="CapAudit" data-source-line="27" data-uid="ent0018" id="entity_CapAudit"><rect fill="url(#gp93lsosywqgd1)" height="46.4417" rx="4.1667" ry="4.1667" style="stroke:#304D6D;stroke-width:2.0833;" width="194.7937" x="1106.7708" y="437.8611"/><text fill="#FFFFFF" font-family="'Verdana'" font-size="12.5" lengthAdjust="spacing" textLength="163.5437" x="1122.3958" y="466.0532">Audit, Liability &amp; Evidence</text></g><!--entity CapPortfolio--><g class="entity" data-entity="CapPortfolio" data-source-line="28" data-uid="ent0019" id="entity_CapPortfolio"><rect fill="url(#gp93lsosywqgd1)" height="46.4417" rx="4.1667" ry="4.1667" style="stroke:#304D6D;stroke-width:2.0833;" width="228.8635" x="379.3229" y="437.8611"/><text fill="#FFFFFF" font-family="'Verdana'" font-size="12.5" lengthAdjust="spacing" textLength="197.6135" x="394.9479" y="466.0532">Portfolio &amp; Backlog Governance</text></g><!--entity AsIsMaturity--><g class="entity" data-entity="AsIsMaturity" data-source-line="32" data-uid="ent0021" id="entity_AsIsMaturity"><rect fill="url(#gp93lsosywqgd1)" height="61.6333" rx="4.1667" ry="4.1667" style="stroke:#304D6D;stroke-width:2.0833;" width="227.0142" x="1394.8229" y="430.2673"/><text fill="#FFFFFF" font-family="'Verdana'" font-size="12.5" lengthAdjust="spacing" textLength="85.4309" x="1410.4479" y="458.4595">As-Is: 2.1 / 5</text><text fill="#FFFFFF" font-family="'Verdana'" font-size="12.5" lengthAdjust="spacing" textLength="195.7642" x="1410.4479" y="473.6511">(fragmented platform controls)</text></g><!--entity ToBeMaturity--><g class="entity" data-entity="ToBeMaturity" data-source-line="33" data-uid="ent0022" id="entity_ToBeMaturity"><rect fill="url(#gp93lsosywqgd1)" height="61.6333" rx="4.1667" ry="4.1667" style="stroke:#304D6D;stroke-width:2.0833;" width="262.6099" x="1377.0313" y="556.7882"/><text fill="#FFFFFF" font-family="'Verdana'" font-size="12.5" lengthAdjust="spacing" textLength="135.0037" x="1392.6563" y="584.9803">To-Be Target: 4.0 / 5</text><text fill="#FFFFFF" font-family="'Verdana'" font-size="12.5" lengthAdjust="spacing" textLength="231.3599" x="1392.6563" y="600.172">(standardized, measurable platform)</text></g><g class="entity" data-entity="GMN41" data-source-line="58" data-uid="ent0042" id="entity_GMN41"><path d="M1697.9583,558.5694 L1697.9583,616.6444 A4.1667,4.1667 0 0 0 1702.125,620.811 L2237.4664,620.811 A4.1667,4.1667 0 0 0 2241.6331,616.6444 L2241.6331,564.8194 L2231.2164,554.4028 L1702.125,554.4028 A4.1667,4.1667 0 0 0 1697.9583,558.5694" fill="url(#gp93lsosywqgd2)" style="stroke:#246BAA;stroke-width:1.0417;"/><path d="M2231.2164,554.4028 L2231.2164,562.7361 A2.0833,2.0833 0 0 0 2233.2997,564.8194 L2241.6331,564.8194 L2231.2164,554.4028" fill="url(#gp93lsosywqgd2)" style="stroke:#246BAA;stroke-width:1.0417;"/><text fill="#FFFFFF" font-family="'Verdana'" font-size="12.5" lengthAdjust="spacing" textLength="185.0098" x="1709.4167" y="577.3866">Suggested maturity tracking:</text><text fill="#FFFFFF" font-family="'Verdana'" font-size="12.5" lengthAdjust="spacing" textLength="511.3831" x="1709.4167" y="592.5782">- Score each L1 capability on Process, Automation, Compliance, and SLO control.</text><text fill="#FFFFFF" font-family="'Verdana'" font-size="12.5" lengthAdjust="spacing" textLength="375.3113" x="1709.4167" y="607.7699">- Re-baseline quarterly through architecture board reviews.</text></g><!--link CapCustomer to CapAAA--><g class="link" data-entity-1="CapCustomer" data-entity-2="CapAAA" data-source-line="36" data-uid="lnk23" id="link_CapCustomer_CapAAA"><path d="M871.875,179.3507 C871.875,202.934 871.875,233.1528 871.875,259.0903" fill="none" id="CapCustomer-to-CapAAA" style="stroke:#446E9B;stroke-width:3.125;"/><polygon fill="#446E9B" points="871.875,265.3403,876.0417,255.9653,871.875,260.1319,867.7083,255.9653,871.875,265.3403" style="stroke:#446E9B;stroke-width:3.125;"/></g><!--link CapOpenFinance to CapAPI--><g class="link" data-entity-1="CapOpenFinance" data-entity-2="CapAPI" data-source-line="37" data-uid="lnk24" id="link_CapOpenFinance_CapAPI"><path d="M363.8854,179.3507 C363.8854,202.934 363.8854,233.1528 363.8854,259.0903" fill="none" id="CapOpenFinance-to-CapAPI" style="stroke:#446E9B;stroke-width:3.125;"/><polygon fill="#446E9B" points="363.8854,265.3403,368.0521,255.9653,363.8854,260.1319,359.7188,255.9653,363.8854,265.3403" style="stroke:#446E9B;stroke-width:3.125;"/></g><!--link CapPayments to CapAPI--><g class="link" data-entity-1="CapPayments" data-entity-2="CapAPI" data-source-line="38" data-uid="lnk25" id="link_CapPayments_CapAPI"><path d="M499.3854,179.3819 C499.3854,212.6632 499.3854,269.4653 499.3854,269.4653 C499.3854,269.4653 493.7917,269.4653 477.3333,269.4653" fill="none" id="CapPayments-to-CapAPI" style="stroke:#446E9B;stroke-width:3.125;"/><polygon fill="#446E9B" points="471.0833,269.4653,480.4583,273.6319,476.2917,269.4653,480.4583,265.2986,471.0833,269.4653" style="stroke:#446E9B;stroke-width:3.125;"/></g><!--link CapPayments to CapMesh--><g class="link" data-entity-1="CapPayments" data-entity-2="CapMesh" data-source-line="39" data-uid="lnk26" id="link_CapPayments_CapMesh"><path d="M616.3229,179.3507 C616.3229,205.2778 616.3229,240.5173 616.3229,266.4861" fill="none" id="CapPayments-to-CapMesh" style="stroke:#446E9B;stroke-width:3.125;"/><polygon fill="#446E9B" points="616.3229,272.7361,620.4896,263.3611,616.3229,267.5278,612.1563,263.3611,616.3229,272.7361" style="stroke:#446E9B;stroke-width:3.125;"/></g><!--link CapLending to CapData--><g class="link" data-entity-1="CapLending" data-entity-2="CapData" data-source-line="40" data-uid="lnk27" id="link_CapLending_CapData"><path d="M1131.2813,179.3507 C1131.2813,205.2778 1131.2813,240.5173 1131.2813,266.4861" fill="none" id="CapLending-to-CapData" style="stroke:#446E9B;stroke-width:3.125;"/><polygon fill="#446E9B" points="1131.2813,272.7361,1135.4479,263.3611,1131.2813,267.5278,1127.1146,263.3611,1131.2813,272.7361" style="stroke:#446E9B;stroke-width:3.125;"/></g><!--link CapCompliance to CapAudit--><g class="link" data-entity-1="CapCompliance" data-entity-2="CapAudit" data-source-line="41" data-uid="lnk28" id="link_CapCompliance_CapAudit"><path d="M1272.6563,155.9236 C1257.2604,155.9236 1246.3438,155.9236 1246.3438,155.9236 C1246.3438,155.9236 1246.3438,359.9444 1246.3438,431.3923" fill="none" id="CapCompliance-to-CapAudit" style="stroke:#446E9B;stroke-width:3.125;"/><polygon fill="#446E9B" points="1246.3438,437.6423,1250.5104,428.2673,1246.3438,432.434,1242.1771,428.2673,1246.3438,437.6423" style="stroke:#446E9B;stroke-width:3.125;"/></g><!--link CapAAA to CapPolicy--><g class="link" data-entity-1="CapAAA" data-entity-2="CapPolicy" data-source-line="43" data-uid="lnk29" id="link_CapAAA_CapPolicy"><path d="M809.2708,327.3194 C809.2708,359.3819 809.2708,402.4965 809.2708,431.434" fill="none" id="CapAAA-to-CapPolicy" style="stroke:#446E9B;stroke-width:3.125;"/><polygon fill="#446E9B" points="809.2708,437.684,813.4375,428.309,809.2708,432.4757,805.1042,428.309,809.2708,437.684" style="stroke:#446E9B;stroke-width:3.125;"/></g><!--link CapAPI to CapPolicy--><g class="link" data-entity-1="CapAPI" data-entity-2="CapPolicy" data-source-line="44" data-uid="lnk30" id="link_CapAPI_CapPolicy"><path d="M470.9896,323.6319 C564.1146,323.6319 689.2604,323.6319 689.2604,323.6319 C689.2604,323.6319 689.2604,391.9028 689.2604,431.2048" fill="none" id="CapAPI-to-CapPolicy" style="stroke:#446E9B;stroke-width:3.125;"/><polygon fill="#446E9B" points="689.2604,437.4548,693.4271,428.0798,689.2604,432.2465,685.0938,428.0798,689.2604,437.4548" style="stroke:#446E9B;stroke-width:3.125;"/></g><!--link CapMesh to CapPolicy--><g class="link" data-entity-1="CapMesh" data-entity-2="CapPolicy" data-source-line="45" data-uid="lnk31" id="link_CapMesh_CapPolicy"><path d="M711.7813,319.934 C711.7813,351.2569 711.7813,399.9757 711.7813,431.2778" fill="none" id="CapMesh-to-CapPolicy" style="stroke:#446E9B;stroke-width:3.125;"/><polygon fill="#446E9B" points="711.7813,437.5278,715.9479,428.1528,711.7813,432.3194,707.6146,428.1528,711.7813,437.5278" style="stroke:#446E9B;stroke-width:3.125;"/></g><!--link CapData to CapArchGov--><g class="link" data-entity-1="CapData" data-entity-2="CapArchGov" data-source-line="46" data-uid="lnk32" id="link_CapData_CapArchGov"><path d="M1039.8125,319.934 C1039.8125,351.2569 1039.8125,399.9757 1039.8125,431.2778" fill="none" id="CapData-to-CapArchGov" style="stroke:#446E9B;stroke-width:3.125;"/><polygon fill="#446E9B" points="1039.8125,437.5278,1043.9792,428.1528,1039.8125,432.3194,1035.6458,428.1528,1039.8125,437.5278" style="stroke:#446E9B;stroke-width:3.125;"/></g><!--link CapObs to CapAudit--><g class="link" data-entity-1="CapObs" data-entity-2="CapAudit" data-source-line="47" data-uid="lnk33" id="link_CapObs_CapAudit"><path d="M1278.8438,319.934 C1278.8438,351.2569 1278.8438,399.9757 1278.8438,431.2778" fill="none" id="CapObs-to-CapAudit" style="stroke:#446E9B;stroke-width:3.125;"/><polygon fill="#446E9B" points="1278.8438,437.5278,1283.0104,428.1528,1278.8438,432.3194,1274.6771,428.1528,1278.8438,437.5278" style="stroke:#446E9B;stroke-width:3.125;"/></g><!--link CapDevSecOps to CapPolicy--><g class="link" data-entity-1="CapDevSecOps" data-entity-2="CapPolicy" data-source-line="48" data-uid="lnk34" id="link_CapDevSecOps_CapPolicy"><path d="M169.25,319.7569 C169.25,344.1423 169.25,378.8403 169.25,378.8403 C169.25,378.8403 666.75,378.8403 666.75,378.8403 C666.75,378.8403 666.75,407.1736 666.75,431.4861" fill="none" id="CapDevSecOps-to-CapPolicy" style="stroke:#446E9B;stroke-width:3.125;"/><polygon fill="#446E9B" points="666.75,437.7361,670.9167,428.3611,666.75,432.5278,662.5833,428.3611,666.75,437.7361" style="stroke:#446E9B;stroke-width:3.125;"/></g><!--link CapDevSecOps to CapPortfolio--><g class="link" data-entity-1="CapDevSecOps" data-entity-2="CapPortfolio" data-source-line="49" data-uid="lnk35" id="link_CapDevSecOps_CapPortfolio"><path d="M101.5833,319.9444 C101.5833,365.5069 101.5833,461.1319 101.5833,461.1319 C101.5833,461.1319 257.0208,461.1319 372.75,461.1319" fill="none" id="CapDevSecOps-to-CapPortfolio" style="stroke:#446E9B;stroke-width:3.125;"/><polygon fill="#446E9B" points="379,461.1319,369.625,456.9653,373.7917,461.1319,369.625,465.2986,379,461.1319" style="stroke:#446E9B;stroke-width:3.125;"/></g><!--link AsIsMaturity to ToBeMaturity--><g class="link" data-entity-1="AsIsMaturity" data-entity-2="ToBeMaturity" data-source-line="51" data-uid="lnk36" id="link_AsIsMaturity_ToBeMaturity"><path d="M1508.3333,492.3611 C1508.3333,511.9757 1508.3333,530.9028 1508.3333,550.4444" fill="none" id="AsIsMaturity-to-ToBeMaturity" style="stroke:#446E9B;stroke-width:3.125;"/><polygon fill="#446E9B" points="1508.3333,556.6944,1512.5,547.3194,1508.3333,551.4861,1504.1667,547.3194,1508.3333,556.6944" style="stroke:#446E9B;stroke-width:3.125;"/></g><!--link CapArchGov to ToBeMaturity--><g class="link" data-entity-1="CapArchGov" data-entity-2="ToBeMaturity" data-source-line="52" data-uid="lnk37" id="link_CapArchGov_ToBeMaturity"><path d="M977.0833,484.7361 C977.0833,517.4653 977.0833,572.5903 977.0833,572.5903 C977.0833,572.5903 1213.0938,572.5903 1370.4271,572.5903" fill="none" id="CapArchGov-to-ToBeMaturity" style="stroke:#446E9B;stroke-width:3.125;"/><polygon fill="#446E9B" points="1376.6771,572.5903,1367.3021,568.4236,1371.4688,572.5903,1367.3021,576.7569,1376.6771,572.5903" style="stroke:#446E9B;stroke-width:3.125;"/></g><!--link CapPolicy to ToBeMaturity--><g class="link" data-entity-1="CapPolicy" data-entity-2="ToBeMaturity" data-source-line="53" data-uid="lnk38" id="link_CapPolicy_ToBeMaturity"><path d="M745.8333,484.7986 C745.8333,521.3298 745.8333,587.1736 745.8333,587.1736 C745.8333,587.1736 1152.4479,587.1736 1370.5729,587.1736" fill="none" id="CapPolicy-to-ToBeMaturity" style="stroke:#446E9B;stroke-width:3.125;"/><polygon fill="#446E9B" points="1376.8229,587.1736,1367.4479,583.0069,1371.6146,587.1736,1367.4479,591.3403,1376.8229,587.1736" style="stroke:#446E9B;stroke-width:3.125;"/></g><!--link CapAudit to ToBeMaturity--><g class="link" data-entity-1="CapAudit" data-entity-2="ToBeMaturity" data-source-line="54" data-uid="lnk39" id="link_CapAudit_ToBeMaturity"><path d="M1301.9688,461.1319 C1344.9896,461.1319 1385.9271,461.1319 1385.9271,461.1319 C1385.9271,461.1319 1385.9271,512.6423 1385.9271,550.0903" fill="none" id="CapAudit-to-ToBeMaturity" style="stroke:#446E9B;stroke-width:3.125;"/><polygon fill="#446E9B" points="1385.9271,556.3403,1390.0938,546.9653,1385.9271,551.1319,1381.7604,546.9653,1385.9271,556.3403" style="stroke:#446E9B;stroke-width:3.125;"/></g><!--link CapPortfolio to ToBeMaturity--><g class="link" data-entity-1="CapPortfolio" data-entity-2="ToBeMaturity" data-source-line="55" data-uid="lnk40" id="link_CapPortfolio_ToBeMaturity"><path d="M493.75,484.809 C493.75,525.1528 493.75,602.7986 493.75,602.7986 C493.75,602.7986 1095.9583,602.7986 1370.4896,602.7986" fill="none" id="CapPortfolio-to-ToBeMaturity" style="stroke:#446E9B;stroke-width:3.125;"/><polygon fill="#446E9B" points="1376.7396,602.7986,1367.3646,598.6319,1371.5313,602.7986,1367.3646,606.9653,1376.7396,602.7986" style="stroke:#446E9B;stroke-width:3.125;"/></g><!--link Maturity to GMN41--><g class="link" data-entity-1="Maturity" data-entity-2="GMN41" data-source-line="58" data-uid="lnk43" id="link_Maturity_GMN41"><path d="M1672.9436,587.1736 C1673.1171,587.1736 1673.293,587.1736 1673.4714,587.1736 C1679.1797,587.1736 1687.4167,587.1736 1697.5313,587.1736" fill="none" id="Maturity-GMN41" style="stroke:#446E9B;stroke-width:3.125;stroke-dasharray:7.2917,7.2917;"/></g><!--SRC=[XLLBRzim3BxxLt0jKAnOqgt3TkbXWFDe4In5ZQJ7NHI7iON8aYV9ARnX_tsKRVcL3Bia21_VHv4VcNSsnGp1v2n6mNQ1vLOWBAL5dMjk4EOiPpikk2tXcUNmVbveZTB2oS0hqmdQso0mHovpfba617Da2MvjIIWQOyja8h0N8BX4M-O8IjjK1K6J05VhUvWLXhp6T9mSpHKm0-lxrdSjU9BQ4eLGR_0xW8u5hkQ5iIf33JUmsbEHTT6Iy3FwLI4Hj8yQvhxaAE6HIoPZX0Mp3BOfqrmcFiq5DFvXPiHA1myhIGKpovKa_YrQQcIVjWapm-GroZsHKCPSuvvRMFC3ncKiqESr4QENgYmNlAhr1ZRS766kfDLAj8zi0u8_moul9Ti9HtcXowslxdAYaPeoQdBRsHi8uzYD91BC7fJEViZttv5AL-m87s2z22FwMaGgklLLXM4u10kZbHiMoItHTUjwO4_CuXih2IGAD_JvID4TLBGQGcrHdpZrunbDIksF2-sAt1HKRDOsqpc7QTMeFIdLygHEgAif-nmNCTBApX2PNmiQzcRPgcGt6l02JrJCIsvSN97deeHvohXiqRr_FAUka4kJ8cyx96hHQ4QXZbDkwNUXySABd9ki8nahmUDooinqhlQNikg04L51cfsGQBjcB4-S5D8ZSo5ZAatj5bnH-8oUB5HoaQ-96dHcS8ziFUIjPBb9LRrghVKwuyQMMj4H6xV7J5Vc0JxVtSD7-4fAEsYMkEN4FUHU2d6zKAPMN6XMnYCFmLxLT8RDBNo0BtUV6an30Nkcz_mNxYUG8JE5fkt2bg46VbKpR87feRq31TFfDxyrmmFKUcW9UgVbF-PA_Dr5yUPAtuEJqU9Kemlg4honaK5DSswirk_CMcsPHstKLs_BaAk_41TGpbrU8a5_G9LxqDYEzgAlfhYSvkhwHv9NyPataCeYx9IbEO8wG4yvso99q3YbPRvQgqdSD907SazX6ojQMcHnIciESITtTnorSXTt0c51oDN1d40tjmcGv62xVl7YlQiGDpZTCOFkhnT-5apJVpjT8PjgLIGfiFwjs2bIBAdxnF7Dt0Ka571F2Vu2]--></g></svg>