<svg xmlns="http://www.w3.org/2000/svg" xmlns:xlink="http://www.w3.org/1999/xlink" contentStyleType="text/css" data-diagram-type="DESCRIPTION" height="696.875px" preserveAspectRatio="none" style="width:4595px;height:696px;" version="1.1" viewBox="0 0 4595 696" width="4595.8333px" zoomAndPan="magnify"><title>Organizational Big Picture - To-Be</title><defs><linearGradient id="gizwu2bew3br00" x1="50%" x2="50%" y1="0%" y2="100%"><stop offset="0%" stop-color="#B8B8B8"/><stop offset="100%" stop-color="#999999"/></linearGradient><linearGradient id="gizwu2bew3br01" x1="50%" x2="50%" y1="0%" y2="100%"><stop offset="0%" stop-color="#B8B8B8"/><stop offset="100%" stop-color="#6B6B6B"/></linearGradient><linearGradient id="gizwu2bew3br02" x1="50%" x2="50%" y1="0%" y2="100%"><stop offset="0%" stop-color="#7C9AB9"/><stop offset="100%" stop-color="#304D6D"/></linearGradient><linearGradient id="gizwu2bew3br03" x1="50%" x2="50%" y1="0%" y2="100%"><stop offset="0%" stop-color="#70B8F7"/><stop offset="100%" stop-color="#246BAA"/></linearGradient></defs><g><g class="title" data-source-line="2"><rect fill="url(#gizwu2bew3br00)" height="48.2361" rx="4.1667" ry="4.1667" style="stroke:#6B6B6B;stroke-width:1.0417;" width="421.9849" x="2082.4242" y="20.8333"/><text fill="#304D6D" font-family="'Verdana'" font-size="20.8333" font-weight="bold" lengthAdjust="spacing" textLength="399.0682" x="2093.8826" y="53.2369">Organizational Big Picture - To-Be</text></g><!--cluster Gov--><g class="cluster" data-entity="Gov" data-source-line="9" data-uid="ent0003" id="cluster_Gov"><rect fill="#D3D3D3" height="123.0833" rx="4.1667" ry="4.1667" style="stroke:#446E9B;stroke-width:2.0833;" width="837.5" x="2226.4167" y="192.6007"/><text fill="#FFFFFF" font-family="'Verdana'" font-size="12.5" font-weight="bold" lengthAdjust="spacing" textLength="218.8232" x="2535.755" y="212.4595">Enterprise Governance (To-Be)</text></g><!--cluster Domains--><g class="cluster" data-entity="Domains" data-source-line="15" data-uid="ent0007" id="cluster_Domains"><rect fill="#FFFFE0" height="186.0313" rx="4.1667" ry="4.1667" style="stroke:#446E9B;stroke-width:2.0833;" width="1710.4167" x="2354.5417" y="357.3507"/><text fill="#FFFFFF" font-family="'Verdana'" font-size="12.5" font-weight="bold" lengthAdjust="spacing" textLength="174.9878" x="3122.2561" y="377.2095">Domain Product Streams</text></g><!--cluster OFStream--><g class="cluster" data-entity="OFStream" data-source-line="16" data-uid="ent0008" id="cluster_OFStream"><rect fill="#FAFAD2" height="107.9062" rx="4.1667" ry="4.1667" style="stroke:#446E9B;stroke-width:2.0833;" width="527.0833" x="3512.875" y="410.4757"/><text fill="#FFFFFF" font-family="'Verdana'" font-size="12.5" font-weight="bold" lengthAdjust="spacing" textLength="150" x="3701.4167" y="430.3345">Open Finance Stream</text></g><!--cluster LoanStream--><g class="cluster" data-entity="LoanStream" data-source-line="20" data-uid="ent0011" id="cluster_LoanStream"><rect fill="#FAFAD2" height="107.9062" rx="4.1667" ry="4.1667" style="stroke:#446E9B;stroke-width:2.0833;" width="542.7083" x="2379.5417" y="410.4757"/><text fill="#FFFFFF" font-family="'Verdana'" font-size="12.5" font-weight="bold" lengthAdjust="spacing" textLength="110.7666" x="2595.5125" y="430.3345">Lending Stream</text></g><!--cluster PayStream--><g class="cluster" data-entity="PayStream" data-source-line="24" data-uid="ent0014" id="cluster_PayStream"><rect fill="#FAFAD2" height="107.9062" rx="4.1667" ry="4.1667" style="stroke:#446E9B;stroke-width:2.0833;" width="540.625" x="2947.25" y="410.4757"/><text fill="#FFFFFF" font-family="'Verdana'" font-size="12.5" font-weight="bold" lengthAdjust="spacing" textLength="124.1272" x="3155.4989" y="430.3345">Payments Stream</text></g><!--cluster Platform--><g class="cluster" data-entity="Platform" data-source-line="30" data-uid="ent0017" id="cluster_Platform"><rect fill="#90EE90" height="336.8125" rx="4.1667" ry="4.1667" style="stroke:#446E9B;stroke-width:2.0833;" width="1770.8333" x="550.375" y="349.0173"/><text fill="#FFFFFF" font-family="'Verdana'" font-size="12.5" font-weight="bold" lengthAdjust="spacing" textLength="235.144" x="1318.2196" y="368.8761">Platform Engineering Capabilities</text></g><!--cluster IdPlat--><g class="cluster" data-entity="IdPlat" data-source-line="31" data-uid="ent0018" id="cluster_IdPlat"><rect fill="#E0FFFF" height="107.9062" rx="4.1667" ry="4.1667" style="stroke:#446E9B;stroke-width:2.0833;" width="540.625" x="592.0417" y="410.4757"/><text fill="#FFFFFF" font-family="'Verdana'" font-size="12.5" font-weight="bold" lengthAdjust="spacing" textLength="121.6187" x="801.5448" y="430.3345">Identity Platform</text></g><!--cluster MeshPlat--><g class="cluster" data-entity="MeshPlat" data-source-line="35" data-uid="ent0021" id="cluster_MeshPlat"><rect fill="#E0FFFF" height="107.9062" rx="4.1667" ry="4.1667" style="stroke:#446E9B;stroke-width:2.0833;" width="503.125" x="1157.6667" y="410.4757"/><text fill="#FFFFFF" font-family="'Verdana'" font-size="12.5" font-weight="bold" lengthAdjust="spacing" textLength="179.9255" x="1319.2664" y="430.3345">Mesh &amp; Runtime Platform</text></g><!--cluster DevSecOps--><g class="cluster" data-entity="DevSecOps" data-source-line="39" data-uid="ent0024" id="cluster_DevSecOps"><rect fill="#E0FFFF" height="242.0208" rx="4.1667" ry="4.1667" style="stroke:#446E9B;stroke-width:2.0833;" width="272.9167" x="1685.7917" y="410.4757"/><text fill="#FFFFFF" font-family="'Verdana'" font-size="12.5" font-weight="bold" lengthAdjust="spacing" textLength="143.1702" x="1750.6649" y="430.3345">DevSecOps Platform</text></g><!--cluster ObsPlat--><g class="cluster" data-entity="ObsPlat" data-source-line="43" data-uid="ent0027" id="cluster_ObsPlat"><rect fill="#E0FFFF" height="242.0208" rx="4.1667" ry="4.1667" style="stroke:#446E9B;stroke-width:2.0833;" width="304.1667" x="1983.7083" y="410.4757"/><text fill="#FFFFFF" font-family="'Verdana'" font-size="12.5" font-weight="bold" lengthAdjust="spacing" textLength="158.2092" x="2056.6871" y="430.3345">Observability Platform</text></g><!--cluster Ops--><g class="cluster" data-entity="Ops" data-source-line="49" data-uid="ent0030" id="cluster_Ops"><rect fill="#ADD8E6" height="249.6146" rx="4.1667" ry="4.1667" style="stroke:#446E9B;stroke-width:2.0833;" width="494.7917" x="4089.9583" y="402.8819"/><text fill="#FFFFFF" font-family="'Verdana'" font-size="12.5" font-weight="bold" lengthAdjust="spacing" textLength="160.5408" x="4257.0838" y="422.7407">Operational Excellence</text></g><!--entity ArchBoard--><g class="entity" data-entity="ArchBoard" data-source-line="10" data-uid="ent0004" id="entity_ArchBoard"><rect fill="url(#gizwu2bew3br01)" height="61.6333" rx="4.1667" ry="4.1667" style="stroke:#304D6D;stroke-width:2.0833;" width="273.4802" x="2531.3438" y="237.3923"/><text fill="#FFFFFF" font-family="'Verdana'" font-size="12.5" lengthAdjust="spacing" textLength="117.4133" x="2546.9688" y="265.5845">Architecture Board</text><text fill="#FFFFFF" font-family="'Verdana'" font-size="12.5" lengthAdjust="spacing" textLength="242.2302" x="2546.9688" y="280.7761">(quarterly runway + ADR governance)</text></g><!--entity SecCouncil--><g class="entity" data-entity="SecCouncil" data-source-line="11" data-uid="ent0005" id="entity_SecCouncil"><rect fill="url(#gizwu2bew3br01)" height="61.6333" rx="4.1667" ry="4.1667" style="stroke:#304D6D;stroke-width:2.0833;" width="251.1169" x="2243.5625" y="237.3923"/><text fill="#FFFFFF" font-family="'Verdana'" font-size="12.5" lengthAdjust="spacing" textLength="191.7725" x="2259.1875" y="265.5845">Security &amp; Compliance Council</text><text fill="#FFFFFF" font-family="'Verdana'" font-size="12.5" lengthAdjust="spacing" textLength="219.8669" x="2259.1875" y="280.7761">(policy owners + control stewards)</text></g><!--entity ValueGov--><g class="entity" data-entity="ValueGov" data-source-line="12" data-uid="ent0006" id="entity_ValueGov"><rect fill="url(#gizwu2bew3br01)" height="61.6333" rx="4.1667" ry="4.1667" style="stroke:#304D6D;stroke-width:2.0833;" width="206.5674" x="2840.8438" y="237.3923"/><text fill="#FFFFFF" font-family="'Verdana'" font-size="12.5" lengthAdjust="spacing" textLength="164.2883" x="2856.4688" y="265.5845">Value Stream Governance</text><text fill="#FFFFFF" font-family="'Verdana'" font-size="12.5" lengthAdjust="spacing" textLength="175.3174" x="2856.4688" y="280.7761">(OKRs + capability funding)</text></g><!--entity OFLeadership--><g class="entity" data-entity="OFLeadership" data-source-line="17" data-uid="ent0009" id="entity_OFLeadership"><rect fill="url(#gizwu2bew3br01)" height="46.4417" rx="4.1667" ry="4.1667" style="stroke:#304D6D;stroke-width:2.0833;" width="251.178" x="3529.9896" y="455.2673"/><text fill="#FFFFFF" font-family="'Verdana'" font-size="12.5" lengthAdjust="spacing" textLength="219.928" x="3545.6146" y="483.4595">Product Owner + Domain Architect</text></g><!--entity OFSquads--><g class="entity" data-entity="OFSquads" data-source-line="18" data-uid="ent0010" id="entity_OFSquads"><rect fill="url(#gizwu2bew3br01)" height="46.4417" rx="4.1667" ry="4.1667" style="stroke:#304D6D;stroke-width:2.0833;" width="205.8167" x="3817.2604" y="455.2673"/><text fill="#FFFFFF" font-family="'Verdana'" font-size="12.5" lengthAdjust="spacing" textLength="174.5667" x="3832.8854" y="483.4595">AIS / CoP / Consent squads</text></g><!--entity LoanLeadership--><g class="entity" data-entity="LoanLeadership" data-source-line="21" data-uid="ent0012" id="entity_LoanLeadership"><rect fill="url(#gizwu2bew3br01)" height="46.4417" rx="4.1667" ry="4.1667" style="stroke:#304D6D;stroke-width:2.0833;" width="251.178" x="2396.6563" y="455.2673"/><text fill="#FFFFFF" font-family="'Verdana'" font-size="12.5" lengthAdjust="spacing" textLength="219.928" x="2412.2813" y="483.4595">Product Owner + Domain Architect</text></g><!--entity LoanSquads--><g class="entity" data-entity="LoanSquads" data-source-line="22" data-uid="ent0013" id="entity_LoanSquads"><rect fill="url(#gizwu2bew3br01)" height="46.4417" rx="4.1667" ry="4.1667" style="stroke:#304D6D;stroke-width:2.0833;" width="221.0144" x="2684.6563" y="455.2673"/><text fill="#FFFFFF" font-family="'Verdana'" font-size="12.5" lengthAdjust="spacing" textLength="189.7644" x="2700.2813" y="483.4595">Origination / Servicing squads</text></g><!--entity PayLeadership--><g class="entity" data-entity="PayLeadership" data-source-line="25" data-uid="ent0015" id="entity_PayLeadership"><rect fill="url(#gizwu2bew3br01)" height="46.4417" rx="4.1667" ry="4.1667" style="stroke:#304D6D;stroke-width:2.0833;" width="251.178" x="2964.3646" y="455.2673"/><text fill="#FFFFFF" font-family="'Verdana'" font-size="12.5" lengthAdjust="spacing" textLength="219.928" x="2979.9896" y="483.4595">Product Owner + Domain Architect</text></g><!--entity PaySquads--><g class="entity" data-entity="PaySquads" data-source-line="26" data-uid="ent0016" id="entity_PaySquads"><rect fill="url(#gizwu2bew3br01)" height="46.4417" rx="4.1667" ry="4.1667" style="stroke:#304D6D;stroke-width:2.0833;" width="219.6045" x="3252.0313" y="455.2673"/><text fill="#FFFFFF" font-family="'Verdana'" font-size="12.5" lengthAdjust="spacing" textLength="188.3545" x="3267.6563" y="483.4595">Initiation / Settlement squads</text></g><!--entity KeycloakLDAP--><g class="entity" data-entity="KeycloakLDAP" data-source-line="32" data-uid="ent0019" id="entity_KeycloakLDAP"><rect fill="url(#gizwu2bew3br01)" height="46.4417" rx="4.1667" ry="4.1667" style="stroke:#304D6D;stroke-width:2.0833;" width="243.5181" x="872.3646" y="455.2673"/><text fill="#FFFFFF" font-family="'Verdana'" font-size="12.5" lengthAdjust="spacing" textLength="212.2681" x="887.9896" y="483.4595">Keycloak (HA) + LDAP Federation</text></g><!--entity DpopPlat--><g class="entity" data-entity="DpopPlat" data-source-line="33" data-uid="ent0020" id="entity_DpopPlat"><rect fill="url(#gizwu2bew3br01)" height="46.4417" rx="4.1667" ry="4.1667" style="stroke:#304D6D;stroke-width:2.0833;" width="227.0569" x="608.7188" y="455.2673"/><text fill="#FFFFFF" font-family="'Verdana'" font-size="12.5" lengthAdjust="spacing" textLength="195.8069" x="624.3438" y="483.4595">DPoP validation + replay cache</text></g><!--entity MeshPolicy--><g class="entity" data-entity="MeshPolicy" data-source-line="36" data-uid="ent0022" id="entity_MeshPolicy"><rect fill="url(#gizwu2bew3br01)" height="46.4417" rx="4.1667" ry="4.1667" style="stroke:#304D6D;stroke-width:2.0833;" width="193.7927" x="1450.3542" y="455.2673"/><text fill="#FFFFFF" font-family="'Verdana'" font-size="12.5" lengthAdjust="spacing" textLength="162.5427" x="1465.9792" y="483.4595">Istio mesh policy baseline</text></g><!--entity AuthzPlatform--><g class="entity" data-entity="AuthzPlatform" data-source-line="37" data-uid="ent0023" id="entity_AuthzPlatform"><rect fill="url(#gizwu2bew3br01)" height="46.4417" rx="4.1667" ry="4.1667" style="stroke:#304D6D;stroke-width:2.0833;" width="239.6484" x="1174.3021" y="455.2673"/><text fill="#FFFFFF" font-family="'Verdana'" font-size="12.5" lengthAdjust="spacing" textLength="208.3984" x="1189.9271" y="483.4595">Gateway policy + ext_authz/OPA</text></g><!--entity CIGates--><g class="entity" data-entity="CIGates" data-source-line="40" data-uid="ent0025" id="entity_CIGates"><rect fill="url(#gizwu2bew3br01)" height="46.4417" rx="4.1667" ry="4.1667" style="stroke:#304D6D;stroke-width:2.0833;" width="240.4663" x="1702.0104" y="589.3923"/><text fill="#FFFFFF" font-family="'Verdana'" font-size="12.5" lengthAdjust="spacing" textLength="209.2163" x="1717.6354" y="617.5845">CI quality gates + policy-as-code</text></g><!--entity SupplyChain--><g class="entity" data-entity="SupplyChain" data-source-line="41" data-uid="ent0026" id="entity_SupplyChain"><rect fill="url(#gizwu2bew3br01)" height="46.4417" rx="4.1667" ry="4.1667" style="stroke:#304D6D;stroke-width:2.0833;" width="224.3103" x="1710.0938" y="455.2673"/><text fill="#FFFFFF" font-family="'Verdana'" font-size="12.5" lengthAdjust="spacing" textLength="193.0603" x="1725.7188" y="483.4595">Signed artifacts + IaC controls</text></g><!--entity OTelSiem--><g class="entity" data-entity="OTelSiem" data-source-line="44" data-uid="ent0028" id="entity_OTelSiem"><rect fill="url(#gizwu2bew3br01)" height="46.4417" rx="4.1667" ry="4.1667" style="stroke:#304D6D;stroke-width:2.0833;" width="231.8481" x="2029.2396" y="455.2673"/><text fill="#FFFFFF" font-family="'Verdana'" font-size="12.5" lengthAdjust="spacing" textLength="200.5981" x="2044.8646" y="483.4595">OpenTelemetry + SIEM pipeline</text></g><!--entity SLOOps--><g class="entity" data-entity="SLOOps" data-source-line="45" data-uid="ent0029" id="entity_SLOOps"><rect fill="url(#gizwu2bew3br01)" height="46.4417" rx="4.1667" ry="4.1667" style="stroke:#304D6D;stroke-width:2.0833;" width="270.9229" x="2000.3333" y="589.3923"/><text fill="#FFFFFF" font-family="'Verdana'" font-size="12.5" lengthAdjust="spacing" textLength="239.6729" x="2015.9583" y="617.5845">SLO dashboard + incident automation</text></g><!--entity SRE--><g class="entity" data-entity="SRE" data-source-line="50" data-uid="ent0031" id="entity_SRE"><rect fill="url(#gizwu2bew3br01)" height="46.4417" rx="4.1667" ry="4.1667" style="stroke:#304D6D;stroke-width:2.0833;" width="242.3706" x="4106.2708" y="455.2673"/><text fill="#FFFFFF" font-family="'Verdana'" font-size="12.5" lengthAdjust="spacing" textLength="211.1206" x="4121.8958" y="483.4595">SRE + Service Reliability Reviews</text></g><!--entity ComplianceEng--><g class="entity" data-entity="ComplianceEng" data-source-line="51" data-uid="ent0032" id="entity_ComplianceEng"><rect fill="url(#gizwu2bew3br01)" height="61.6333" rx="4.1667" ry="4.1667" style="stroke:#304D6D;stroke-width:2.0833;" width="182.4402" x="4385.1979" y="447.6736"/><text fill="#FFFFFF" font-family="'Verdana'" font-size="12.5" lengthAdjust="spacing" textLength="151.1902" x="4400.8229" y="475.8657">Compliance Engineering</text><text fill="#FFFFFF" font-family="'Verdana'" font-size="12.5" lengthAdjust="spacing" textLength="139.3188" x="4400.8229" y="491.0574">(continuous evidence)</text></g><!--entity DRProgram--><g class="entity" data-entity="DRProgram" data-source-line="52" data-uid="ent0033" id="entity_DRProgram"><rect fill="url(#gizwu2bew3br01)" height="46.4417" rx="4.1667" ry="4.1667" style="stroke:#304D6D;stroke-width:2.0833;" width="187.3413" x="4133.7813" y="589.3923"/><text fill="#FFFFFF" font-family="'Verdana'" font-size="12.5" lengthAdjust="spacing" textLength="156.0913" x="4149.4063" y="617.5845">DR &amp; Resilience Program</text></g><!--entity Board--><g class="entity" data-entity="Board" data-source-line="7" data-uid="ent0002" id="entity_Board"><ellipse cx="2668.0769" cy="95.1111" fill="url(#gizwu2bew3br02)" rx="8.3333" ry="8.3333" style="stroke:#304D6D;stroke-width:1.0417;"/><path d="M2668.0769,103.4444 L2668.0769,131.5694 M2654.5353,111.7778 L2681.6186,111.7778 M2668.0769,131.5694 L2654.5353,147.1944 M2668.0769,131.5694 L2681.6186,147.1944" fill="none" style="stroke:#304D6D;stroke-width:1.0417;"/><text fill="#FFFFFF" font-family="'Verdana'" font-size="12.5" lengthAdjust="spacing" textLength="184.8206" x="2575.6667" y="167.0532">Board / Executive Committee</text></g><g class="entity" data-entity="GMN64" data-source-line="95" data-uid="ent0065" id="entity_GMN64"><path d="M16.6667,575.9757 L16.6667,649.2423 A4.1667,4.1667 0 0 0 20.8333,653.4089 L521.58,653.4089 A4.1667,4.1667 0 0 0 525.7467,649.2423 L525.7467,582.2257 L515.33,571.809 L20.8333,571.809 A4.1667,4.1667 0 0 0 16.6667,575.9757" fill="url(#gizwu2bew3br03)" style="stroke:#246BAA;stroke-width:1.0417;"/><path d="M515.33,571.809 L515.33,580.1423 A2.0833,2.0833 0 0 0 517.4133,582.2257 L525.7467,582.2257 L515.33,571.809" fill="url(#gizwu2bew3br03)" style="stroke:#246BAA;stroke-width:1.0417;"/><text fill="#FFFFFF" font-family="'Verdana'" font-size="12.5" lengthAdjust="spacing" textLength="230.1819" x="28.125" y="594.7928">To-Be organizational characteristics:</text><text fill="#FFFFFF" font-family="'Verdana'" font-size="12.5" lengthAdjust="spacing" textLength="476.7883" x="28.125" y="609.9845">- Centralized AAA platform (Keycloak + LDAP + DPoP) as shared capability.</text><text fill="#FFFFFF" font-family="'Verdana'" font-size="12.5" lengthAdjust="spacing" textLength="461.1206" x="28.125" y="625.1761">- Distributed domain squads with platform guardrails and policy-as-code.</text><text fill="#FFFFFF" font-family="'Verdana'" font-size="12.5" lengthAdjust="spacing" textLength="454.8523" x="28.125" y="640.3678">- Continuous compliance and reliability integrated into delivery lifecycle.</text></g><!--link Board to ArchBoard--><g class="link" data-entity-1="Board" data-entity-2="ArchBoard" data-source-line="55" data-uid="lnk34" id="link_Board_ArchBoard"><path d="M2668.0833,175.0798 C2668.0833,195.3715 2668.0833,212.6111 2668.0833,230.9236" fill="none" id="Board-to-ArchBoard" style="stroke:#446E9B;stroke-width:3.125;"/><polygon fill="#446E9B" points="2668.0833,237.1736,2672.25,227.7986,2668.0833,231.9653,2663.9167,227.7986,2668.0833,237.1736" style="stroke:#446E9B;stroke-width:3.125;"/><text fill="#FFFFFF" font-family="'Verdana'" font-size="12.5" lengthAdjust="spacing" textLength="113.1409" x="2674.3333" y="197.8553">strategic direction</text></g><!--link Board to SecCouncil--><g class="link" data-entity-1="Board" data-entity-2="SecCouncil" data-source-line="56" data-uid="lnk35" id="link_Board_SecCouncil"><path d="M2570.1875,130.6215 C2483,130.6215 2369.125,130.6215 2369.125,130.6215 C2369.125,130.6215 2369.125,190.1423 2369.125,230.7361" fill="none" id="Board-to-SecCouncil" style="stroke:#446E9B;stroke-width:3.125;"/><polygon fill="#446E9B" points="2369.125,236.9861,2373.2917,227.6111,2369.125,231.7778,2364.9583,227.6111,2369.125,236.9861" style="stroke:#446E9B;stroke-width:3.125;"/><text fill="#FFFFFF" font-family="'Verdana'" font-size="12.5" lengthAdjust="spacing" textLength="155.8289" x="2255.0208" y="122.3553">regulatory accountability</text></g><!--link Board to ValueGov--><g class="link" data-entity-1="Board" data-entity-2="ValueGov" data-source-line="57" data-uid="lnk36" id="link_Board_ValueGov"><path d="M2766.1771,130.6215 C2845.5208,130.6215 2944.125,130.6215 2944.125,130.6215 C2944.125,130.6215 2944.125,190.1423 2944.125,230.7361" fill="none" id="Board-to-ValueGov" style="stroke:#446E9B;stroke-width:3.125;"/><polygon fill="#446E9B" points="2944.125,236.9861,2948.2917,227.6111,2944.125,231.7778,2939.9583,227.6111,2944.125,236.9861" style="stroke:#446E9B;stroke-width:3.125;"/><text fill="#FFFFFF" font-family="'Verdana'" font-size="12.5" lengthAdjust="spacing" textLength="108.6548" x="2793.75" y="122.3553">funding decisions</text></g><!--link ArchBoard to OFLeadership--><g class="link" data-entity-1="ArchBoard" data-entity-2="OFLeadership" data-source-line="59" data-uid="lnk37" id="link_ArchBoard_OFLeadership"><path d="M2714.6979,299.4653 C2714.6979,330.4444 2714.6979,373.3298 2714.6979,373.3298 C2714.6979,373.3298 3613.7188,373.3298 3613.7188,373.3298 C3613.7188,373.3298 3613.7188,417.6319 3613.7188,448.6423" fill="none" id="ArchBoard-to-OFLeadership" style="stroke:#446E9B;stroke-width:3.125;"/><polygon fill="#446E9B" points="3613.7188,454.8923,3617.8854,445.5173,3613.7188,449.684,3609.5521,445.5173,3613.7188,454.8923" style="stroke:#446E9B;stroke-width:3.125;"/></g><!--link ArchBoard to LoanLeadership--><g class="link" data-entity-1="ArchBoard" data-entity-2="LoanLeadership" data-source-line="60" data-uid="lnk38" id="link_ArchBoard_LoanLeadership"><path d="M2570.1771,299.2361 C2570.1771,341.6215 2570.1771,410.4548 2570.1771,448.5903" fill="none" id="ArchBoard-to-LoanLeadership" style="stroke:#446E9B;stroke-width:3.125;"/><polygon fill="#446E9B" points="2570.1771,454.8403,2574.3438,445.4653,2570.1771,449.6319,2566.0104,445.4653,2570.1771,454.8403" style="stroke:#446E9B;stroke-width:3.125;"/></g><!--link ArchBoard to PayLeadership--><g class="link" data-entity-1="ArchBoard" data-entity-2="PayLeadership" data-source-line="61" data-uid="lnk39" id="link_ArchBoard_PayLeadership"><path d="M2744.7396,299.2257 C2744.7396,351.9861 2744.7396,453.5382 2744.7396,453.5382 C2744.7396,453.5382 2992.0521,453.5382 2992.0521,453.5382 C2992.0521,453.5382 2992.0521,447.7778 2992.0521,448.6319" fill="none" id="ArchBoard-to-PayLeadership" style="stroke:#446E9B;stroke-width:3.125;"/><polygon fill="#446E9B" points="2992.0521,454.8819,2996.2188,445.5069,2992.0521,449.6736,2987.8854,445.5069,2992.0521,454.8819" style="stroke:#446E9B;stroke-width:3.125;"/></g><!--link SecCouncil to KeycloakLDAP--><g class="link" data-entity-1="SecCouncil" data-entity-2="KeycloakLDAP" data-source-line="63" data-uid="lnk40" id="link_SecCouncil_KeycloakLDAP"><path d="M2243.2708,268.1215 C1893.1458,268.1215 933.2396,268.1215 933.2396,268.1215 C933.2396,268.1215 933.2396,393.5069 933.2396,448.5173" fill="none" id="SecCouncil-to-KeycloakLDAP" style="stroke:#446E9B;stroke-width:3.125;"/><polygon fill="#446E9B" points="933.2396,454.7673,937.4063,445.3923,933.2396,449.559,929.0729,445.3923,933.2396,454.7673" style="stroke:#446E9B;stroke-width:3.125;"/><text fill="#FFFFFF" font-family="'Verdana'" font-size="12.5" lengthAdjust="spacing" textLength="91.8152" x="1397.0208" y="259.8553">AAA standards</text></g><!--link SecCouncil to DpopPlat--><g class="link" data-entity-1="SecCouncil" data-entity-2="DpopPlat" data-source-line="64" data-uid="lnk41" id="link_SecCouncil_DpopPlat"><path d="M2243.3125,252.4965 C1858.3333,252.4965 722.25,252.4965 722.25,252.4965 C722.25,252.4965 722.25,391.1632 722.25,448.9132" fill="none" id="SecCouncil-to-DpopPlat" style="stroke:#446E9B;stroke-width:3.125;"/><polygon fill="#446E9B" points="722.25,455.1632,726.4167,445.7882,722.25,449.9548,718.0833,445.7882,722.25,455.1632" style="stroke:#446E9B;stroke-width:3.125;"/><text fill="#FFFFFF" font-family="'Verdana'" font-size="12.5" lengthAdjust="spacing" textLength="86.4868" x="1288.7396" y="244.2303">DPoP controls</text></g><!--link SecCouncil to MeshPolicy--><g class="link" data-entity-1="SecCouncil" data-entity-2="MeshPolicy" data-source-line="65" data-uid="lnk42" id="link_SecCouncil_MeshPolicy"><path d="M2243.5,283.7465 C2002.4792,283.7465 1498.8021,283.7465 1498.8021,283.7465 C1498.8021,283.7465 1498.8021,396.9548 1498.8021,448.7465" fill="none" id="SecCouncil-to-MeshPolicy" style="stroke:#446E9B;stroke-width:3.125;"/><polygon fill="#446E9B" points="1498.8021,454.9965,1502.9688,445.6215,1498.8021,449.7882,1494.6354,445.6215,1498.8021,454.9965" style="stroke:#446E9B;stroke-width:3.125;"/><text fill="#FFFFFF" font-family="'Verdana'" font-size="12.5" lengthAdjust="spacing" textLength="116.4124" x="1663.6458" y="275.4803">zero-trust controls</text></g><!--link SecCouncil to ComplianceEng--><g class="link" data-entity-1="SecCouncil" data-entity-2="ComplianceEng" data-source-line="66" data-uid="lnk43" id="link_SecCouncil_ComplianceEng"><path d="M2333.9583,299.4548 C2333.9583,363.4757 2333.9583,503.5382 2333.9583,503.5382 C2333.9583,503.5382 3968.9375,503.5382 4378.4479,503.5382" fill="none" id="SecCouncil-to-ComplianceEng" style="stroke:#446E9B;stroke-width:3.125;"/><polygon fill="#446E9B" points="4384.6979,503.5382,4375.3229,499.3715,4379.4896,503.5382,4375.3229,507.7048,4384.6979,503.5382" style="stroke:#446E9B;stroke-width:3.125;"/><text fill="#FFFFFF" font-family="'Verdana'" font-size="12.5" lengthAdjust="spacing" textLength="116.9861" x="3134.3646" y="522.3553">control verification</text></g><!--link ValueGov to OFLeadership--><g class="link" data-entity-1="ValueGov" data-entity-2="OFLeadership" data-source-line="68" data-uid="lnk44" id="link_ValueGov_OFLeadership"><path d="M3047.6875,268.1215 C3254.1667,268.1215 3697.4479,268.1215 3697.4479,268.1215 C3697.4479,268.1215 3697.4479,393.5069 3697.4479,448.5173" fill="none" id="ValueGov-to-OFLeadership" style="stroke:#446E9B;stroke-width:3.125;"/><polygon fill="#446E9B" points="3697.4479,454.7673,3701.6146,445.3923,3697.4479,449.559,3693.2813,445.3923,3697.4479,454.7673" style="stroke:#446E9B;stroke-width:3.125;"/><text fill="#FFFFFF" font-family="'Verdana'" font-size="12.5" lengthAdjust="spacing" textLength="112.8784" x="3347.1354" y="259.8553">product outcomes</text></g><!--link ValueGov to LoanLeadership--><g class="link" data-entity-1="ValueGov" data-entity-2="LoanLeadership" data-source-line="69" data-uid="lnk45" id="link_ValueGov_LoanLeadership"><path d="M2873.2604,299.4653 C2873.2604,352.0486 2873.2604,452.4965 2873.2604,452.4965 C2873.2604,452.4965 2609.0104,452.4965 2609.0104,452.4965 C2609.0104,452.4965 2609.0104,447.1632 2609.0104,448.6423" fill="none" id="ValueGov-to-LoanLeadership" style="stroke:#446E9B;stroke-width:3.125;"/><polygon fill="#446E9B" points="2609.0104,454.8923,2613.1771,445.5173,2609.0104,449.684,2604.8438,445.5173,2609.0104,454.8923" style="stroke:#446E9B;stroke-width:3.125;"/></g><!--link ValueGov to PayLeadership--><g class="link" data-entity-1="ValueGov" data-entity-2="PayLeadership" data-source-line="70" data-uid="lnk46" id="link_ValueGov_PayLeadership"><path d="M3019.7292,299.2361 C3019.7292,341.6215 3019.7292,410.4548 3019.7292,448.5903" fill="none" id="ValueGov-to-PayLeadership" style="stroke:#446E9B;stroke-width:3.125;"/><polygon fill="#446E9B" points="3019.7292,454.8403,3023.8958,445.4653,3019.7292,449.6319,3015.5625,445.4653,3019.7292,454.8403" style="stroke:#446E9B;stroke-width:3.125;"/></g><!--link OFSquads to KeycloakLDAP--><g class="link" data-entity-1="OFSquads" data-entity-2="KeycloakLDAP" data-source-line="72" data-uid="lnk47" id="link_OFSquads_KeycloakLDAP"><path d="M3885.8646,455.0278 C3885.8646,451.1319 3885.8646,448.3298 3885.8646,448.3298 C3885.8646,448.3298 994.125,448.3298 994.125,448.3298 C994.125,448.3298 994.125,444.8819 994.125,448.7778" fill="none" id="OFSquads-to-KeycloakLDAP" style="stroke:#446E9B;stroke-width:3.125;"/><polygon fill="#446E9B" points="994.125,455.0278,998.2917,445.6528,994.125,449.8194,989.9583,445.6528,994.125,455.0278" style="stroke:#446E9B;stroke-width:3.125;"/><text fill="#FFFFFF" font-family="'Verdana'" font-size="12.5" lengthAdjust="spacing" textLength="132.6233" x="2301.4479" y="440.0636">shared identity plane</text></g><!--link LoanSquads to KeycloakLDAP--><g class="link" data-entity-1="LoanSquads" data-entity-2="KeycloakLDAP" data-source-line="73" data-uid="lnk48" id="link_LoanSquads_KeycloakLDAP"><path d="M2739.9063,502.0694 C2739.9063,505.3923 2739.9063,507.7048 2739.9063,507.7048 C2739.9063,507.7048 994.125,507.7048 994.125,507.7048 C994.125,507.7048 994.125,511.6423 994.125,508.3194" fill="none" id="LoanSquads-to-KeycloakLDAP" style="stroke:#446E9B;stroke-width:3.125;"/><polygon fill="#446E9B" points="994.125,502.0694,989.9583,511.4444,994.125,507.2778,998.2917,511.4444,994.125,502.0694" style="stroke:#446E9B;stroke-width:3.125;"/></g><!--link PaySquads to KeycloakLDAP--><g class="link" data-entity-1="PaySquads" data-entity-2="KeycloakLDAP" data-source-line="74" data-uid="lnk49" id="link_PaySquads_KeycloakLDAP"><path d="M3416.7292,454.7986 C3416.7292,452.1632 3416.7292,450.4132 3416.7292,450.4132 C3416.7292,450.4132 1055,450.4132 1055,450.4132 C1055,450.4132 1055,445.9132 1055,448.5486" fill="none" id="PaySquads-to-KeycloakLDAP" style="stroke:#446E9B;stroke-width:3.125;"/><polygon fill="#446E9B" points="1055,454.7986,1059.1667,445.4236,1055,449.5903,1050.8333,445.4236,1055,454.7986" style="stroke:#446E9B;stroke-width:3.125;"/></g><!--link OFSquads to MeshPolicy--><g class="link" data-entity-1="OFSquads" data-entity-2="MeshPolicy" data-source-line="76" data-uid="lnk50" id="link_OFSquads_MeshPolicy"><path d="M3885.8646,501.934 C3885.8646,512.3403 3885.8646,522.2882 3885.8646,522.2882 C3885.8646,522.2882 1547.25,522.2882 1547.25,522.2882 C1547.25,522.2882 1547.25,518.5903 1547.25,508.184" fill="none" id="OFSquads-to-MeshPolicy" style="stroke:#446E9B;stroke-width:3.125;"/><polygon fill="#446E9B" points="1547.25,501.934,1543.0833,511.309,1547.25,507.1423,1551.4167,511.309,1547.25,501.934" style="stroke:#446E9B;stroke-width:3.125;"/><text fill="#FFFFFF" font-family="'Verdana'" font-size="12.5" lengthAdjust="spacing" textLength="189.5691" x="2521.7604" y="541.1053">secure service communication</text></g><!--link LoanSquads to MeshPolicy--><g class="link" data-entity-1="LoanSquads" data-entity-2="MeshPolicy" data-source-line="77" data-uid="lnk51" id="link_LoanSquads_MeshPolicy"><path d="M2774.7813,454.8507 C2774.7813,454.6736 2774.7813,454.5798 2774.7813,454.5798 C2774.7813,454.5798 1595.6979,454.5798 1595.6979,454.5798 C1595.6979,454.5798 1595.6979,448.4236 1595.6979,448.6007" fill="none" id="LoanSquads-to-MeshPolicy" style="stroke:#446E9B;stroke-width:3.125;"/><polygon fill="#446E9B" points="1595.6979,454.8507,1599.8646,445.4757,1595.6979,449.6423,1591.5313,445.4757,1595.6979,454.8507" style="stroke:#446E9B;stroke-width:3.125;"/></g><!--link PaySquads to MeshPolicy--><g class="link" data-entity-1="PaySquads" data-entity-2="MeshPolicy" data-source-line="78" data-uid="lnk52" id="link_PaySquads_MeshPolicy"><path d="M3361.8333,454.7673 C3361.8333,452.7465 3361.8333,451.4548 3361.8333,451.4548 C3361.8333,451.4548 1547.25,451.4548 1547.25,451.4548 C1547.25,451.4548 1547.25,446.4965 1547.25,448.5173" fill="none" id="PaySquads-to-MeshPolicy" style="stroke:#446E9B;stroke-width:3.125;"/><polygon fill="#446E9B" points="1547.25,454.7673,1551.4167,445.3923,1547.25,449.559,1543.0833,445.3923,1547.25,454.7673" style="stroke:#446E9B;stroke-width:3.125;"/></g><!--link AuthzPlatform to OFSquads--><g class="link" data-entity-1="AuthzPlatform" data-entity-2="OFSquads" data-source-line="80" data-uid="lnk53" id="link_AuthzPlatform_OFSquads"><path d="M1254.1771,454.9861 C1254.1771,451.6736 1254.1771,449.3715 1254.1771,449.3715 C1254.1771,449.3715 3954.4688,449.3715 3954.4688,449.3715 C3954.4688,449.3715 3954.4688,445.4236 3954.4688,448.7361" fill="none" id="AuthzPlatform-to-OFSquads" style="stroke:#446E9B;stroke-width:3.125;"/><polygon fill="#446E9B" points="3954.4688,454.9861,3958.6354,445.6111,3954.4688,449.7778,3950.3021,445.6111,3954.4688,454.9861" style="stroke:#446E9B;stroke-width:3.125;"/><text fill="#FFFFFF" font-family="'Verdana'" font-size="12.5" lengthAdjust="spacing" textLength="137.5854" x="2460.5729" y="441.1053">fine-grained decisions</text></g><!--link AuthzPlatform to LoanSquads--><g class="link" data-entity-1="AuthzPlatform" data-entity-2="LoanSquads" data-source-line="81" data-uid="lnk54" id="link_AuthzPlatform_LoanSquads"><path d="M1294.125,502.0069 C1294.125,504.7882 1294.125,506.6632 1294.125,506.6632 C1294.125,506.6632 2795.1667,506.6632 2795.1667,506.6632 C2795.1667,506.6632 2795.1667,511.0382 2795.1667,508.2569" fill="none" id="AuthzPlatform-to-LoanSquads" style="stroke:#446E9B;stroke-width:3.125;"/><polygon fill="#446E9B" points="2795.1667,502.0069,2791,511.3819,2795.1667,507.2153,2799.3333,511.3819,2795.1667,502.0069" style="stroke:#446E9B;stroke-width:3.125;"/></g><!--link AuthzPlatform to PaySquads--><g class="link" data-entity-1="AuthzPlatform" data-entity-2="PaySquads" data-source-line="82" data-uid="lnk55" id="link_AuthzPlatform_PaySquads"><path d="M1334.0625,454.7673 C1334.0625,452.7465 1334.0625,451.4548 1334.0625,451.4548 C1334.0625,451.4548 3306.9271,451.4548 3306.9271,451.4548 C3306.9271,451.4548 3306.9271,446.4965 3306.9271,448.5173" fill="none" id="AuthzPlatform-to-PaySquads" style="stroke:#446E9B;stroke-width:3.125;"/><polygon fill="#446E9B" points="3306.9271,454.7673,3311.0938,445.3923,3306.9271,449.559,3302.7604,445.3923,3306.9271,454.7673" style="stroke:#446E9B;stroke-width:3.125;"/></g><!--link CIGates to OFSquads--><g class="link" data-entity-1="CIGates" data-entity-2="OFSquads" data-source-line="84" data-uid="lnk56" id="link_CIGates_OFSquads"><path d="M1940.4583,588.9757 C1940.4583,574.9132 1940.4583,559.7882 1940.4583,559.7882 C1940.4583,559.7882 3954.4688,559.7882 3954.4688,559.7882 C3954.4688,559.7882 3954.4688,532.2673 3954.4688,508.2569" fill="none" id="CIGates-to-OFSquads" style="stroke:#446E9B;stroke-width:3.125;"/><polygon fill="#446E9B" points="3954.4688,502.0069,3950.3021,511.3819,3954.4688,507.2153,3958.6354,511.3819,3954.4688,502.0069" style="stroke:#446E9B;stroke-width:3.125;"/><text fill="#FFFFFF" font-family="'Verdana'" font-size="12.5" lengthAdjust="spacing" textLength="103.8635" x="2852.3854" y="551.522">delivery controls</text></g><!--link CIGates to LoanSquads--><g class="link" data-entity-1="CIGates" data-entity-2="LoanSquads" data-source-line="85" data-uid="lnk57" id="link_CIGates_LoanSquads"><path d="M1936.4271,589.2569 C1936.4271,566.3403 1936.4271,534.7882 1936.4271,534.7882 C1936.4271,534.7882 2850.4167,534.7882 2850.4167,534.7882 C2850.4167,534.7882 2850.4167,523.7153 2850.4167,508.2882" fill="none" id="CIGates-to-LoanSquads" style="stroke:#446E9B;stroke-width:3.125;"/><polygon fill="#446E9B" points="2850.4167,502.0382,2846.25,511.4132,2850.4167,507.2465,2854.5833,511.4132,2850.4167,502.0382" style="stroke:#446E9B;stroke-width:3.125;"/></g><!--link CIGates to PaySquads--><g class="link" data-entity-1="CIGates" data-entity-2="PaySquads" data-source-line="86" data-uid="lnk58" id="link_CIGates_PaySquads"><path d="M1938.4375,589.0278 C1938.4375,570.3194 1938.4375,547.2882 1938.4375,547.2882 C1938.4375,547.2882 3361.8333,547.2882 3361.8333,547.2882 C3361.8333,547.2882 3361.8333,528.3194 3361.8333,508.4132" fill="none" id="CIGates-to-PaySquads" style="stroke:#446E9B;stroke-width:3.125;"/><polygon fill="#446E9B" points="3361.8333,502.1632,3357.6667,511.5382,3361.8333,507.3715,3366,511.5382,3361.8333,502.1632" style="stroke:#446E9B;stroke-width:3.125;"/></g><!--link SupplyChain to CIGates--><g class="link" data-entity-1="SupplyChain" data-entity-2="CIGates" data-source-line="87" data-uid="lnk59" id="link_SupplyChain_CIGates"><path d="M1822.25,502.1632 C1822.25,526.6736 1822.25,558.4965 1822.25,582.9236" fill="none" id="SupplyChain-to-CIGates" style="stroke:#446E9B;stroke-width:3.125;"/><polygon fill="#446E9B" points="1822.25,589.1736,1826.4167,579.7986,1822.25,583.9653,1818.0833,579.7986,1822.25,589.1736" style="stroke:#446E9B;stroke-width:3.125;"/></g><!--link OTelSiem to SLOOps--><g class="link" data-entity-1="OTelSiem" data-entity-2="SLOOps" data-source-line="89" data-uid="lnk60" id="link_OTelSiem_SLOOps"><path d="M2145.1667,502.1632 C2145.1667,526.6736 2145.1667,558.4965 2145.1667,582.9236" fill="none" id="OTelSiem-to-SLOOps" style="stroke:#446E9B;stroke-width:3.125;"/><polygon fill="#446E9B" points="2145.1667,589.1736,2149.3333,579.7986,2145.1667,583.9653,2141,579.7986,2145.1667,589.1736" style="stroke:#446E9B;stroke-width:3.125;"/></g><!--link SLOOps to SRE--><g class="link" data-entity-1="SLOOps" data-entity-2="SRE" data-source-line="90" data-uid="lnk61" id="link_SLOOps_SRE"><path d="M2271.3958,612.9132 C2718.8438,612.9132 4120.0313,612.9132 4120.0313,612.9132 C4120.0313,612.9132 4120.0313,547.059 4120.0313,508.4653" fill="none" id="SLOOps-to-SRE" style="stroke:#446E9B;stroke-width:3.125;"/><polygon fill="#446E9B" points="4120.0313,502.2153,4115.8646,511.5903,4120.0313,507.4236,4124.1979,511.5903,4120.0313,502.2153" style="stroke:#446E9B;stroke-width:3.125;"/></g><!--link ComplianceEng to OTelSiem--><g class="link" data-entity-1="ComplianceEng" data-entity-2="OTelSiem" data-source-line="91" data-uid="lnk62" id="link_ComplianceEng_OTelSiem"><path d="M4384.9583,504.5798 C3967.8438,504.5798 2266.1667,504.5798 2266.1667,504.5798 C2266.1667,504.5798 2266.1667,478.5382 2266.1667,478.5382 C2266.1667,478.5382 2270.7604,478.5382 2267.8229,478.5382" fill="none" id="ComplianceEng-to-OTelSiem" style="stroke:#446E9B;stroke-width:3.125;"/><polygon fill="#446E9B" points="2261.5729,478.5382,2270.9479,482.7048,2266.7813,478.5382,2270.9479,474.3715,2261.5729,478.5382" style="stroke:#446E9B;stroke-width:3.125;"/></g><!--link SRE to DRProgram--><g class="link" data-entity-1="SRE" data-entity-2="DRProgram" data-source-line="92" data-uid="lnk63" id="link_SRE_DRProgram"><path d="M4227.4583,502.1632 C4227.4583,526.6736 4227.4583,558.4965 4227.4583,582.9236" fill="none" id="SRE-to-DRProgram" style="stroke:#446E9B;stroke-width:3.125;"/><polygon fill="#446E9B" points="4227.4583,589.1736,4231.625,579.7986,4227.4583,583.9653,4223.2917,579.7986,4227.4583,589.1736" style="stroke:#446E9B;stroke-width:3.125;"/></g><!--link Platform to GMN64--><g class="link" data-entity-1="Platform" data-entity-2="GMN64" data-source-line="95" data-uid="lnk66" id="link_Platform_GMN64"><path d="M550.2619,580.6215 C550.2185,580.6215 550.1749,580.6215 550.1312,580.6215 C550.0438,580.6215 549.9558,580.6215 549.8672,580.6215 C544.1953,580.6215 536.0208,580.6215 526.0104,580.6215" fill="none" id="Platform-GMN64" style="stroke:#446E9B;stroke-width:3.125;stroke-dasharray:7.2917,7.2917;"/></g><!--SRC=[jLTDRziu4BthLyncWKM2mDjx3miujjCrciA6NVIqm8AcnX8HcTIIb5DbqV- -ZvHaVRZPddg98t7cySrmvWtrYy_vnEHA8RaGXyGhNp1jR2QqUXLU6IqAUb0PRPNqbMMQqMSpU-0aSSzAbyAA4y7tMMIyzpLSBKilT5RmmA1GcdrTCXdhSvCaGdfZwUR129lIErfzPLbvTMPQcDD9USzyGy9HN4-I5fvkLjgpBQroJ1_CcQqMMZBTHZvtqGElwTT2PRdFhAZftuHwFdGpjp9Ndfiu8lXV-lQVIbZ05ZNPIh_0wPxconrbbmqQvE3Ry1b1xi7SAb_JRu5xMQX8QM4gBLK1zD8KIjPaNZHR1sXfjBUc8EVv1M2k0GTAwp96_oAAYcdlBIE9VSZ0tNpSHJXHYeCg0e5ZfLEbimOmEi8X-JP8tzASXDAqjIQjf6zXNRHlbboRkvgBmhp4x5sSDoLhUbHDoXlNwBbvREcrQJT5oXex33168NMxRq96445Bwd8qBUWJYnGPorKv1PYlzoYPXTd6lzgnzkHmYAdh-CG7k7qRyd_Yc9uXzISZz4yW7s3Vfh-nAaCMGsCXW3tRivA1ro24oEkxGMn5VKAyRXW5tls4883wTWnhhRpgG_1GZDFa60AhFeHX5MuBuO_6dcYbaGXc6w9VT7MikFNlhBfkPfJVg23NYDA7mkzCezyw3O-jbwo5lex_8zUoCEAPRl-Sto7-f-LyIu-CM6D84QQp2MjJ_-KMjNSMXKgR5DnZiImW75B8l16kPMdAm6DwVf_OvL2ANGNc4DqHyx3sG-vhXotf561QPJa8nq5UUupuVkhuGGJ1gJklU-Al_czH-VprtMOxRnGkF7MKfioNV8P8RKet9js__Z_MYpMX5g9APU0HXAlXCHDk9atQa5-i0qatTTwhJ7DA46brnDm8pcknw8IqgPPzLPP5lSXHnrFYcuD3ZtKYEIAFfHycFCZUPmxrxMr8stwz-aIbAlkSRx2yLtowulsqeLIu_127t3qfo7ieMKBMqN6NKeCTydVL9jZOTkDtzHMpkM0eRxFZ9Ts7C1ucGsw_MmMUKLYOTY3Q1R_Zi-ANDcExrTXjCBq6ZOb94nAjT6KgH_1F-J8HUmyuZC4mFr7bxB1li0yZ1_EuBPbT-nJ2RMu0izaV_NobznYE29qp9IbL0HLP65ZsmnAcbhCAPsXmE49AlFPjj0E7RXZ2l1sIbB9K3h0kIVgDW-reyeoN9he-NXphPJBW65Q7SW8My_aSCGgTXXl0rBRJ3jX5fUaAVMhNzpeiNzcQcRULys_QZuuBBjrD19SATLGorbgIN78rJGOyodPmcCfB0mqQ6q_ICrgRPAURqT_BZSk5HRkhJjsXh9gJVYHU-IINKNEzDDvfb34NBcwuzxPzWe1EbUxICDbk8AlZpGOBoKW-s_IrfgWxDDGCHQ-2bFN5T-qpcFtNY_rGJLgndEwJejrne7LV1KF30VZmTGyxqD6cPbf9JZgHQngmKQpcfta3DHdNL-JLAMEGf5ZQbzPFjF5C1-CXXMIED1WxyJQF3uNH1uX4LK3yKQeOWDAzXzsC5YWHYx7oYfo6bYgxNDrUHdmxtUzZAzq5-Mdhgxyu_nwnbW2swb3vS3xDXQYvpT2BydaFdU5h8SKv5exGlvCnra0jUi6KlQW6QpiGOuLlcIp8N1h-DVt95Uh84lI1XYihXKGb_m40]--></g></svg>