<svg xmlns="http://www.w3.org/2000/svg" xmlns:xlink="http://www.w3.org/1999/xlink" contentStyleType="text/css" data-diagram-type="DESCRIPTION" height="1187.5px" preserveAspectRatio="none" style="width:1958px;height:1187px;" version="1.1" viewBox="0 0 1958 1187" width="1958.3333px" zoomAndPan="magnify"><title>Organizational Big Picture - As-Is</title><defs><linearGradient id="gep7zvpoeohag0" x1="50%" x2="50%" y1="0%" y2="100%"><stop offset="0%" stop-color="#B8B8B8"/><stop offset="100%" stop-color="#999999"/></linearGradient><linearGradient id="gep7zvpoeohag1" x1="50%" x2="50%" y1="0%" y2="100%"><stop offset="0%" stop-color="#B8B8B8"/><stop offset="100%" stop-color="#6B6B6B"/></linearGradient><linearGradient id="gep7zvpoeohag2" x1="50%" x2="50%" y1="0%" y2="100%"><stop offset="0%" stop-color="#7C9AB9"/><stop offset="100%" stop-color="#304D6D"/></linearGradient><linearGradient id="gep7zvpoeohag3" x1="50%" x2="50%" y1="0%" y2="100%"><stop offset="0%" stop-color="#70B8F7"/><stop offset="100%" stop-color="#246BAA"/></linearGradient></defs><g><g class="title" data-source-line="2"><rect fill="url(#gep7zvpoeohag0)" height="48.2361" rx="4.1667" ry="4.1667" style="stroke:#6B6B6B;stroke-width:1.0417;" width="416.0441" x="766.4571" y="20.8333"/><text fill="#304D6D" font-family="'Verdana'" font-size="20.8333" font-weight="bold" lengthAdjust="spacing" textLength="393.1274" x="777.9154" y="53.2369">Organizational Big Picture - As-Is</text></g><!--cluster Gov--><g class="cluster" data-entity="Gov" data-source-line="9" data-uid="ent0003" id="cluster_Gov"><rect fill="#D3D3D3" height="247.2292" rx="4.1667" ry="4.1667" style="stroke:#446E9B;stroke-width:2.0833;" width="419.7917" x="465.625" y="192.5903"/><text fill="#FFFFFF" font-family="'Verdana'" font-size="12.5" font-weight="bold" lengthAdjust="spacing" textLength="215.2588" x="567.8914" y="212.4491">Enterprise Governance (As-Is)</text></g><!--cluster Delivery--><g class="cluster" data-entity="Delivery" data-source-line="15" data-uid="ent0007" id="cluster_Delivery"><rect fill="#FFFFE0" height="336.8125" rx="4.1667" ry="4.1667" style="stroke:#446E9B;stroke-width:2.0833;" width="1206.25" x="17.7083" y="473.1528"/><text fill="#FFFFFF" font-family="'Verdana'" font-size="12.5" font-weight="bold" lengthAdjust="spacing" textLength="207.8552" x="516.9057" y="493.0116">Delivery Organization (As-Is)</text></g><!--cluster TeamOF--><g class="cluster" data-entity="TeamOF" data-source-line="16" data-uid="ent0008" id="cluster_TeamOF"><rect fill="#FAFAD2" height="242.0208" rx="4.1667" ry="4.1667" style="stroke:#446E9B;stroke-width:2.0833;" width="258.3333" x="382.2917" y="534.6111"/><text fill="#FFFFFF" font-family="'Verdana'" font-size="12.5" font-weight="bold" lengthAdjust="spacing" textLength="173.0408" x="424.9379" y="554.4699">Silo Team: Open Finance</text></g><!--cluster TeamLoan--><g class="cluster" data-entity="TeamLoan" data-source-line="20" data-uid="ent0011" id="cluster_TeamLoan"><rect fill="#FAFAD2" height="107.8958" rx="4.1667" ry="4.1667" style="stroke:#446E9B;stroke-width:2.0833;" width="245.8333" x="665.625" y="534.6111"/><text fill="#FFFFFF" font-family="'Verdana'" font-size="12.5" font-weight="bold" lengthAdjust="spacing" textLength="133.8074" x="721.638" y="554.4699">Silo Team: Lending</text></g><!--cluster TeamPay--><g class="cluster" data-entity="TeamPay" data-source-line="23" data-uid="ent0013" id="cluster_TeamPay"><rect fill="#FAFAD2" height="107.8958" rx="4.1667" ry="4.1667" style="stroke:#446E9B;stroke-width:2.0833;" width="245.8333" x="936.4583" y="534.6111"/><text fill="#FFFFFF" font-family="'Verdana'" font-size="12.5" font-weight="bold" lengthAdjust="spacing" textLength="147.168" x="985.791" y="554.4699">Silo Team: Payments</text></g><!--cluster InfraTeam--><g class="cluster" data-entity="InfraTeam" data-source-line="26" data-uid="ent0015" id="cluster_InfraTeam"><rect fill="#FAFAD2" height="242.0208" rx="4.1667" ry="4.1667" style="stroke:#446E9B;stroke-width:2.0833;" width="306.25" x="51.0417" y="534.6111"/><text fill="#FFFFFF" font-family="'Verdana'" font-size="12.5" font-weight="bold" lengthAdjust="spacing" textLength="131.9031" x="138.2151" y="554.4699">Shared Infra Team</text></g><!--cluster SecID--><g class="cluster" data-entity="SecID" data-source-line="32" data-uid="ent0018" id="cluster_SecID"><rect fill="#FFE4E1" height="431.7708" rx="4.1667" ry="4.1667" style="stroke:#446E9B;stroke-width:2.0833;" width="243.75" x="1703.125" y="527.0173"/><text fill="#FFFFFF" font-family="'Verdana'" font-size="12.5" font-weight="bold" lengthAdjust="spacing" textLength="188.8672" x="1730.5664" y="546.8761">Security &amp; Identity (As-Is)</text></g><!--cluster Ops--><g class="cluster" data-entity="Ops" data-source-line="38" data-uid="ent0022" id="cluster_Ops"><rect fill="#ADD8E6" height="333.375" rx="4.1667" ry="4.1667" style="stroke:#446E9B;stroke-width:2.0833;" width="314.5833" x="713.5417" y="843.2986"/><text fill="#FFFFFF" font-family="'Verdana'" font-size="12.5" font-weight="bold" lengthAdjust="spacing" textLength="132.3181" x="804.6743" y="863.1574">Operations (As-Is)</text></g><!--entity ArchReview--><g class="entity" data-entity="ArchReview" data-source-line="10" data-uid="ent0004" id="entity_ArchReview"><rect fill="url(#gep7zvpoeohag1)" height="61.6333" rx="4.1667" ry="4.1667" style="stroke:#304D6D;stroke-width:2.0833;" width="201.3794" x="482.6458" y="237.3819"/><text fill="#FFFFFF" font-family="'Verdana'" font-size="12.5" lengthAdjust="spacing" textLength="125.2686" x="498.2708" y="265.5741">Architecture Review</text><text fill="#FFFFFF" font-family="'Verdana'" font-size="12.5" lengthAdjust="spacing" textLength="170.1294" x="498.2708" y="280.7657">(ad-hoc, project-triggered)</text></g><!--entity RiskCompliance--><g class="entity" data-entity="RiskCompliance" data-source-line="11" data-uid="ent0005" id="entity_RiskCompliance"><rect fill="url(#gep7zvpoeohag1)" height="61.6333" rx="4.1667" ry="4.1667" style="stroke:#304D6D;stroke-width:2.0833;" width="147.6501" x="720.9688" y="237.3819"/><text fill="#FFFFFF" font-family="'Verdana'" font-size="12.5" lengthAdjust="spacing" textLength="116.4001" x="736.5938" y="265.5741">Risk &amp; Compliance</text><text fill="#FFFFFF" font-family="'Verdana'" font-size="12.5" lengthAdjust="spacing" textLength="106.5796" x="736.5938" y="280.7657">(late-stage gate)</text></g><!--entity CAB--><g class="entity" data-entity="CAB" data-source-line="12" data-uid="ent0006" id="entity_CAB"><rect fill="url(#gep7zvpoeohag1)" height="61.6333" rx="4.1667" ry="4.1667" style="stroke:#304D6D;stroke-width:2.0833;" width="178.1067" x="481.7813" y="361.5173"/><text fill="#FFFFFF" font-family="'Verdana'" font-size="12.5" lengthAdjust="spacing" textLength="146.8567" x="497.4063" y="389.7095">Change Advisory Board</text><text fill="#FFFFFF" font-family="'Verdana'" font-size="12.5" lengthAdjust="spacing" textLength="123.0225" x="497.4063" y="404.9011">(manual approvals)</text></g><!--entity OFTeam--><g class="entity" data-entity="OFTeam" data-source-line="17" data-uid="ent0009" id="entity_OFTeam"><rect fill="url(#gep7zvpoeohag1)" height="46.4417" rx="4.1667" ry="4.1667" style="stroke:#304D6D;stroke-width:2.0833;" width="212.0117" x="408.5729" y="579.4028"/><text fill="#FFFFFF" font-family="'Verdana'" font-size="12.5" lengthAdjust="spacing" textLength="180.7617" x="424.1979" y="607.5949">PO + Tech Lead + Engineers</text></g><!--entity OFAuth--><g class="entity" data-entity="OFAuth" data-source-line="18" data-uid="ent0010" id="entity_OFAuth"><rect fill="url(#gep7zvpoeohag1)" height="46.4417" rx="4.1667" ry="4.1667" style="stroke:#304D6D;stroke-width:2.0833;" width="224.8413" x="399.0417" y="713.5173"/><text fill="#FFFFFF" font-family="'Verdana'" font-size="12.5" lengthAdjust="spacing" textLength="193.5913" x="414.6667" y="741.7095">Own auth rules in service code</text></g><!--entity LoanTeam--><g class="entity" data-entity="LoanTeam" data-source-line="21" data-uid="ent0012" id="entity_LoanTeam"><rect fill="url(#gep7zvpoeohag1)" height="46.4417" rx="4.1667" ry="4.1667" style="stroke:#304D6D;stroke-width:2.0833;" width="212.0117" x="682.5313" y="579.4028"/><text fill="#FFFFFF" font-family="'Verdana'" font-size="12.5" lengthAdjust="spacing" textLength="180.7617" x="698.1563" y="607.5949">PO + Tech Lead + Engineers</text></g><!--entity PayTeam--><g class="entity" data-entity="PayTeam" data-source-line="24" data-uid="ent0014" id="entity_PayTeam"><rect fill="url(#gep7zvpoeohag1)" height="46.4417" rx="4.1667" ry="4.1667" style="stroke:#304D6D;stroke-width:2.0833;" width="212.0117" x="953.3646" y="579.4028"/><text fill="#FFFFFF" font-family="'Verdana'" font-size="12.5" lengthAdjust="spacing" textLength="180.7617" x="968.9896" y="607.5949">PO + Tech Lead + Engineers</text></g><!--entity InfraOps--><g class="entity" data-entity="InfraOps" data-source-line="27" data-uid="ent0016" id="entity_InfraOps"><rect fill="url(#gep7zvpoeohag1)" height="46.4417" rx="4.1667" ry="4.1667" style="stroke:#304D6D;stroke-width:2.0833;" width="194.6411" x="126.6354" y="579.4028"/><text fill="#FFFFFF" font-family="'Verdana'" font-size="12.5" lengthAdjust="spacing" textLength="163.3911" x="142.2604" y="607.5949">K8s + network operations</text></g><!--entity EnvDrift--><g class="entity" data-entity="EnvDrift" data-source-line="28" data-uid="ent0017" id="entity_EnvDrift"><rect fill="url(#gep7zvpoeohag1)" height="46.4417" rx="4.1667" ry="4.1667" style="stroke:#304D6D;stroke-width:2.0833;" width="273.1384" x="67.5938" y="713.5173"/><text fill="#FFFFFF" font-family="'Verdana'" font-size="12.5" lengthAdjust="spacing" textLength="241.8884" x="83.2188" y="741.7095">Environment-by-environment changes</text></g><!--entity GwChecks--><g class="entity" data-entity="GwChecks" data-source-line="33" data-uid="ent0019" id="entity_GwChecks"><rect fill="url(#gep7zvpoeohag1)" height="46.4417" rx="4.1667" ry="4.1667" style="stroke:#304D6D;stroke-width:2.0833;" width="165.2893" x="1724.6458" y="713.5173"/><text fill="#FFFFFF" font-family="'Verdana'" font-size="12.5" lengthAdjust="spacing" textLength="134.0393" x="1740.2708" y="741.7095">Gateway auth checks</text></g><!--entity ServiceAuth--><g class="entity" data-entity="ServiceAuth" data-source-line="34" data-uid="ent0020" id="entity_ServiceAuth"><rect fill="url(#gep7zvpoeohag1)" height="61.6333" rx="4.1667" ry="4.1667" style="stroke:#304D6D;stroke-width:2.0833;" width="209.5764" x="1720.2083" y="880.4861"/><text fill="#FFFFFF" font-family="'Verdana'" font-size="12.5" lengthAdjust="spacing" textLength="153.7415" x="1735.8333" y="908.6782">Service-level token logic</text><text fill="#FFFFFF" font-family="'Verdana'" font-size="12.5" lengthAdjust="spacing" textLength="178.3264" x="1735.8333" y="923.8699">(duplicated implementation)</text></g><!--entity NoCentralAAA--><g class="entity" data-entity="NoCentralAAA" data-source-line="35" data-uid="ent0021" id="entity_NoCentralAAA"><rect fill="url(#gep7zvpoeohag1)" height="61.6333" rx="4.1667" ry="4.1667" style="stroke:#304D6D;stroke-width:2.0833;" width="205.2856" x="1722.3542" y="571.809"/><text fill="#FFFFFF" font-family="'Verdana'" font-size="12.5" lengthAdjust="spacing" textLength="174.0356" x="1737.9792" y="600.0011">No single AAA control plane</text><text fill="#FFFFFF" font-family="'Verdana'" font-size="12.5" lengthAdjust="spacing" textLength="93.3655" x="1737.9792" y="615.1928">for all domains</text></g><!--entity PartialObs--><g class="entity" data-entity="PartialObs" data-source-line="39" data-uid="ent0023" id="entity_PartialObs"><rect fill="url(#gep7zvpoeohag1)" height="46.4417" rx="4.1667" ry="4.1667" style="stroke:#304D6D;stroke-width:2.0833;" width="216.7053" x="745.8125" y="888.0903"/><text fill="#FFFFFF" font-family="'Verdana'" font-size="12.5" lengthAdjust="spacing" textLength="185.4553" x="761.4375" y="916.2824">Partial observability coverage</text></g><!--entity ManualIncident--><g class="entity" data-entity="ManualIncident" data-source-line="40" data-uid="ent0024" id="entity_ManualIncident"><rect fill="url(#gep7zvpoeohag1)" height="46.4417" rx="4.1667" ry="4.1667" style="stroke:#304D6D;stroke-width:2.0833;" width="170.6238" x="777.1875" y="1004.6215"/><text fill="#FFFFFF" font-family="'Verdana'" font-size="12.5" lengthAdjust="spacing" textLength="139.3738" x="792.8125" y="1032.8136">Manual incident triage</text></g><!--entity ReactiveAudit--><g class="entity" data-entity="ReactiveAudit" data-source-line="41" data-uid="ent0025" id="entity_ReactiveAudit"><rect fill="url(#gep7zvpoeohag1)" height="46.4417" rx="4.1667" ry="4.1667" style="stroke:#304D6D;stroke-width:2.0833;" width="282.2205" x="729.7188" y="1113.5694"/><text fill="#FFFFFF" font-family="'Verdana'" font-size="12.5" lengthAdjust="spacing" textLength="250.9705" x="745.3438" y="1141.7616">Reactive compliance evidence collection</text></g><!--entity Board--><g class="entity" data-entity="Board" data-source-line="7" data-uid="ent0002" id="entity_Board"><ellipse cx="688.5457" cy="95.1111" fill="url(#gep7zvpoeohag2)" rx="8.3333" ry="8.3333" style="stroke:#304D6D;stroke-width:1.0417;"/><path d="M688.5457,103.4444 L688.5457,131.5694 M675.004,111.7778 L702.0874,111.7778 M688.5457,131.5694 L675.004,147.1944 M688.5457,131.5694 L702.0874,147.1944" fill="none" style="stroke:#304D6D;stroke-width:1.0417;"/><text fill="#FFFFFF" font-family="'Verdana'" font-size="12.5" lengthAdjust="spacing" textLength="184.8206" x="596.1354" y="167.0532">Board / Executive Committee</text></g><g class="entity" data-entity="GMN45" data-source-line="69" data-uid="ent0046" id="entity_GMN45"><path d="M1249.1563,700.1111 L1249.1563,773.3777 A4.1667,4.1667 0 0 0 1253.3229,777.5444 L1682.0908,777.5444 A4.1667,4.1667 0 0 0 1686.2575,773.3777 L1686.2575,706.3611 L1675.8408,695.9444 L1253.3229,695.9444 A4.1667,4.1667 0 0 0 1249.1563,700.1111" fill="url(#gep7zvpoeohag3)" style="stroke:#246BAA;stroke-width:1.0417;"/><path d="M1675.8408,695.9444 L1675.8408,704.2778 A2.0833,2.0833 0 0 0 1677.9242,706.3611 L1686.2575,706.3611 L1675.8408,695.9444" fill="url(#gep7zvpoeohag3)" style="stroke:#246BAA;stroke-width:1.0417;"/><text fill="#FFFFFF" font-family="'Verdana'" font-size="12.5" lengthAdjust="spacing" textLength="225.708" x="1260.6146" y="718.9282">As-Is organizational characteristics:</text><text fill="#FFFFFF" font-family="'Verdana'" font-size="12.5" lengthAdjust="spacing" textLength="382.8613" x="1260.6146" y="734.1199">- Delivery is domain-siloed with limited platform abstraction.</text><text fill="#FFFFFF" font-family="'Verdana'" font-size="12.5" lengthAdjust="spacing" textLength="400.061" x="1260.6146" y="749.3115">- Security controls are split between gateway and service code.</text><text fill="#FFFFFF" font-family="'Verdana'" font-size="12.5" lengthAdjust="spacing" textLength="404.8096" x="1260.6146" y="764.5032">- Governance and compliance are mostly end-of-cycle activities.</text></g><!--link Board to ArchReview--><g class="link" data-entity-1="Board" data-entity-2="ArchReview" data-source-line="44" data-uid="lnk26" id="link_Board_ArchReview"><path d="M637.4688,175.0798 C637.4688,195.3715 637.4688,212.6111 637.4688,230.9132" fill="none" id="Board-to-ArchReview" style="stroke:#446E9B;stroke-width:3.125;"/><polygon fill="#446E9B" points="637.4688,237.1632,641.6354,227.7882,637.4688,231.9548,633.3021,227.7882,637.4688,237.1632" style="stroke:#446E9B;stroke-width:3.125;"/><text fill="#FFFFFF" font-family="'Verdana'" font-size="12.5" lengthAdjust="spacing" textLength="107.5867" x="523.9271" y="197.8553">periodic requests</text></g><!--link Board to RiskCompliance--><g class="link" data-entity-1="Board" data-entity-2="RiskCompliance" data-source-line="45" data-uid="lnk27" id="link_Board_RiskCompliance"><path d="M753.5625,175.0798 C753.5625,195.3715 753.5625,212.6111 753.5625,230.9132" fill="none" id="Board-to-RiskCompliance" style="stroke:#446E9B;stroke-width:3.125;"/><polygon fill="#446E9B" points="753.5625,237.1632,757.7292,227.7882,753.5625,231.9548,749.3958,227.7882,753.5625,237.1632" style="stroke:#446E9B;stroke-width:3.125;"/><text fill="#FFFFFF" font-family="'Verdana'" font-size="12.5" lengthAdjust="spacing" textLength="148.4436" x="759.8125" y="197.8553">regulatory expectations</text></g><!--link ArchReview to OFTeam--><g class="link" data-entity-1="ArchReview" data-entity-2="OFTeam" data-source-line="46" data-uid="lnk28" id="link_ArchReview_OFTeam"><path d="M482.1979,268.3403 C461.1354,268.3403 445.1771,268.3403 445.1771,268.3403 C445.1771,268.3403 445.1771,496.7778 445.1771,572.8715" fill="none" id="ArchReview-to-OFTeam" style="stroke:#446E9B;stroke-width:3.125;"/><polygon fill="#446E9B" points="445.1771,579.1215,449.3438,569.7465,445.1771,573.9132,441.0104,569.7465,445.1771,579.1215" style="stroke:#446E9B;stroke-width:3.125;"/><text fill="#FFFFFF" font-family="'Verdana'" font-size="12.5" lengthAdjust="spacing" textLength="104.5837" x="334.7604" y="396.9491">project guidance</text></g><!--link ArchReview to LoanTeam--><g class="link" data-entity-1="ArchReview" data-entity-2="LoanTeam" data-source-line="47" data-uid="lnk29" id="link_ArchReview_LoanTeam"><path d="M674.9896,299.3715 C674.9896,382.4132 674.9896,602.7153 674.9896,602.7153 C674.9896,602.7153 671.375,602.7153 675.8438,602.7153" fill="none" id="ArchReview-to-LoanTeam" style="stroke:#446E9B;stroke-width:3.125;"/><polygon fill="#446E9B" points="682.0938,602.7153,672.7188,598.5486,676.8854,602.7153,672.7188,606.8819,682.0938,602.7153" style="stroke:#446E9B;stroke-width:3.125;"/></g><!--link ArchReview to PayTeam--><g class="link" data-entity-1="ArchReview" data-entity-2="PayTeam" data-source-line="48" data-uid="lnk30" id="link_ArchReview_PayTeam"><path d="M667.4375,299.3403 C667.4375,387.059 667.4375,629.7986 667.4375,629.7986 C667.4375,629.7986 957.9479,629.7986 957.9479,629.7986 C957.9479,629.7986 957.9479,634.559 957.9479,632.2673" fill="none" id="ArchReview-to-PayTeam" style="stroke:#446E9B;stroke-width:3.125;"/><polygon fill="#446E9B" points="957.9479,626.0173,953.7813,635.3923,957.9479,631.2257,962.1146,635.3923,957.9479,626.0173" style="stroke:#446E9B;stroke-width:3.125;"/></g><!--link RiskCompliance to CAB--><g class="link" data-entity-1="RiskCompliance" data-entity-2="CAB" data-source-line="50" data-uid="lnk31" id="link_RiskCompliance_CAB"><path d="M794.7917,299.5173 C794.7917,336.2778 794.7917,392.2986 794.7917,392.2986 C794.7917,392.2986 728.9479,392.2986 666.5625,392.2986" fill="none" id="RiskCompliance-to-CAB" style="stroke:#446E9B;stroke-width:3.125;"/><polygon fill="#446E9B" points="660.3125,392.2986,669.6875,396.4653,665.5208,392.2986,669.6875,388.1319,660.3125,392.2986" style="stroke:#446E9B;stroke-width:3.125;"/><text fill="#FFFFFF" font-family="'Verdana'" font-size="12.5" lengthAdjust="spacing" textLength="134.1675" x="780.1979" y="384.0324">approval dependency</text></g><!--link CAB to InfraOps--><g class="link" data-entity-1="CAB" data-entity-2="InfraOps" data-source-line="51" data-uid="lnk32" id="link_CAB_InfraOps"><path d="M481.5,392.2986 C378.7292,392.2986 223.9583,392.2986 223.9583,392.2986 C223.9583,392.2986 223.9583,517.6528 223.9583,572.6528" fill="none" id="CAB-to-InfraOps" style="stroke:#446E9B;stroke-width:3.125;"/><polygon fill="#446E9B" points="223.9583,578.9028,228.125,569.5278,223.9583,573.6944,219.7917,569.5278,223.9583,578.9028" style="stroke:#446E9B;stroke-width:3.125;"/><text fill="#FFFFFF" font-family="'Verdana'" font-size="12.5" lengthAdjust="spacing" textLength="155.426" x="97.9688" y="384.0324">release window approval</text></g><!--link OFTeam to OFAuth--><g class="link" data-entity-1="OFTeam" data-entity-2="OFAuth" data-source-line="53" data-uid="lnk33" id="link_OFTeam_OFAuth"><path d="M514.5833,626.2882 C514.5833,650.809 514.5833,682.6319 514.5833,707.059" fill="none" id="OFTeam-to-OFAuth" style="stroke:#446E9B;stroke-width:3.125;"/><polygon fill="#446E9B" points="514.5833,713.309,518.75,703.934,514.5833,708.1007,510.4167,703.934,514.5833,713.309" style="stroke:#446E9B;stroke-width:3.125;"/></g><!--link OFAuth to ServiceAuth--><g class="link" data-entity-1="OFAuth" data-entity-2="ServiceAuth" data-source-line="54" data-uid="lnk34" id="link_OFAuth_ServiceAuth"><path d="M511.4583,760.4028 C511.4583,802.4965 511.4583,886.0486 511.4583,886.0486 C511.4583,886.0486 1401.7813,886.0486 1713.4792,886.0486" fill="none" id="OFAuth-to-ServiceAuth" style="stroke:#446E9B;stroke-width:3.125;"/><polygon fill="#446E9B" points="1719.7292,886.0486,1710.3542,881.8819,1714.5208,886.0486,1710.3542,890.2153,1719.7292,886.0486" style="stroke:#446E9B;stroke-width:3.125;"/><text fill="#FFFFFF" font-family="'Verdana'" font-size="12.5" lengthAdjust="spacing" textLength="181.5491" x="1059.0208" y="877.7824">domain-specific enforcement</text></g><!--link LoanTeam to ServiceAuth--><g class="link" data-entity-1="LoanTeam" data-entity-2="ServiceAuth" data-source-line="55" data-uid="lnk35" id="link_LoanTeam_ServiceAuth"><path d="M820.1771,626.1319 C820.1771,693.7465 820.1771,883.9653 820.1771,883.9653 C820.1771,883.9653 1455.9167,883.9653 1713.5938,883.9653" fill="none" id="LoanTeam-to-ServiceAuth" style="stroke:#446E9B;stroke-width:3.125;"/><polygon fill="#446E9B" points="1719.8438,883.9653,1710.4688,879.7986,1714.6354,883.9653,1710.4688,888.1319,1719.8438,883.9653" style="stroke:#446E9B;stroke-width:3.125;"/></g><!--link PayTeam to ServiceAuth--><g class="link" data-entity-1="PayTeam" data-entity-2="ServiceAuth" data-source-line="56" data-uid="lnk36" id="link_PayTeam_ServiceAuth"><path d="M1088.6667,625.9548 C1088.6667,693.0694 1088.6667,881.8819 1088.6667,881.8819 C1088.6667,881.8819 1510.1979,881.8819 1713.6458,881.8819" fill="none" id="PayTeam-to-ServiceAuth" style="stroke:#446E9B;stroke-width:3.125;"/><polygon fill="#446E9B" points="1719.8958,881.8819,1710.5208,877.7153,1714.6875,881.8819,1710.5208,886.0486,1719.8958,881.8819" style="stroke:#446E9B;stroke-width:3.125;"/></g><!--link GwChecks to ServiceAuth--><g class="link" data-entity-1="GwChecks" data-entity-2="ServiceAuth" data-source-line="57" data-uid="lnk37" id="link_GwChecks_ServiceAuth"><path d="M1807.2917,760.2882 C1807.2917,791.2778 1807.2917,839.5903 1807.2917,873.9548" fill="none" id="GwChecks-to-ServiceAuth" style="stroke:#446E9B;stroke-width:3.125;"/><polygon fill="#446E9B" points="1807.2917,880.2048,1811.4583,870.8298,1807.2917,874.9965,1803.125,870.8298,1807.2917,880.2048" style="stroke:#446E9B;stroke-width:3.125;"/><text fill="#FFFFFF" font-family="'Verdana'" font-size="12.5" lengthAdjust="spacing" textLength="148.6206" x="1653.125" y="811.9803">inconsistent boundaries</text></g><!--link InfraOps to EnvDrift--><g class="link" data-entity-1="InfraOps" data-entity-2="EnvDrift" data-source-line="59" data-uid="lnk38" id="link_InfraOps_EnvDrift"><path d="M223.9583,626.2882 C223.9583,650.809 223.9583,682.6319 223.9583,707.059" fill="none" id="InfraOps-to-EnvDrift" style="stroke:#446E9B;stroke-width:3.125;"/><polygon fill="#446E9B" points="223.9583,713.309,228.125,703.934,223.9583,708.1007,219.7917,703.934,223.9583,713.309" style="stroke:#446E9B;stroke-width:3.125;"/></g><!--link EnvDrift to PartialObs--><g class="link" data-entity-1="EnvDrift" data-entity-2="PartialObs" data-source-line="60" data-uid="lnk39" id="link_EnvDrift_PartialObs"><path d="M204.1667,760.2465 C204.1667,807.8298 204.1667,911.0486 204.1667,911.0486 C204.1667,911.0486 554.0833,911.0486 739.125,911.0486" fill="none" id="EnvDrift-to-PartialObs" style="stroke:#446E9B;stroke-width:3.125;"/><polygon fill="#446E9B" points="745.375,911.0486,736,906.8819,740.1667,911.0486,736,915.2153,745.375,911.0486" style="stroke:#446E9B;stroke-width:3.125;"/></g><!--link PartialObs to ManualIncident--><g class="link" data-entity-1="PartialObs" data-entity-2="ManualIncident" data-source-line="61" data-uid="lnk40" id="link_PartialObs_ManualIncident"><path d="M862.5,934.8923 C862.5,955.1111 862.5,977.8403 862.5,998.0486" fill="none" id="PartialObs-to-ManualIncident" style="stroke:#446E9B;stroke-width:3.125;"/><polygon fill="#446E9B" points="862.5,1004.2986,866.6667,994.9236,862.5,999.0903,858.3333,994.9236,862.5,1004.2986" style="stroke:#446E9B;stroke-width:3.125;"/></g><!--link ManualIncident to ReactiveAudit--><g class="link" data-entity-1="ManualIncident" data-entity-2="ReactiveAudit" data-source-line="62" data-uid="lnk41" id="link_ManualIncident_ReactiveAudit"><path d="M862.5,1051.4861 C862.5,1069.7569 862.5,1088.684 862.5,1106.9444" fill="none" id="ManualIncident-to-ReactiveAudit" style="stroke:#446E9B;stroke-width:3.125;"/><polygon fill="#446E9B" points="862.5,1113.1944,866.6667,1103.8194,862.5,1107.9861,858.3333,1103.8194,862.5,1113.1944" style="stroke:#446E9B;stroke-width:3.125;"/></g><!--link RiskCompliance to ReactiveAudit--><g class="link" data-entity-1="RiskCompliance" data-entity-2="ReactiveAudit" data-source-line="63" data-uid="lnk42" id="link_RiskCompliance_ReactiveAudit"><path d="M869.125,268.3403 C983.6042,268.3403 1189.9792,268.3403 1189.9792,268.3403 C1189.9792,268.3403 1189.9792,1137.0903 1189.9792,1137.0903 C1189.9792,1137.0903 1103.8229,1137.0903 1018.4583,1137.0903" fill="none" id="RiskCompliance-to-ReactiveAudit" style="stroke:#446E9B;stroke-width:3.125;"/><polygon fill="#446E9B" points="1012.2083,1137.0903,1021.5833,1141.2569,1017.4167,1137.0903,1021.5833,1132.9236,1012.2083,1137.0903" style="stroke:#446E9B;stroke-width:3.125;"/></g><!--link NoCentralAAA to GwChecks--><g class="link" data-entity-1="NoCentralAAA" data-entity-2="GwChecks" data-source-line="65" data-uid="lnk43" id="link_NoCentralAAA_GwChecks"><path d="M1807.2917,633.7257 C1807.2917,658.0278 1807.2917,685.0173 1807.2917,707.0903" fill="none" id="NoCentralAAA-to-GwChecks" style="stroke:#446E9B;stroke-width:3.125;"/><polygon fill="#446E9B" points="1807.2917,713.3403,1811.4583,703.9653,1807.2917,708.1319,1803.125,703.9653,1807.2917,713.3403" style="stroke:#446E9B;stroke-width:3.125;"/></g><!--link NoCentralAAA to ServiceAuth--><g class="link" data-entity-1="NoCentralAAA" data-entity-2="ServiceAuth" data-source-line="66" data-uid="lnk44" id="link_NoCentralAAA_ServiceAuth"><path d="M1908.7917,633.9236 C1908.7917,693.2361 1908.7917,815.1111 1908.7917,874.1319" fill="none" id="NoCentralAAA-to-ServiceAuth" style="stroke:#446E9B;stroke-width:3.125;"/><polygon fill="#446E9B" points="1908.7917,880.3819,1912.9583,871.0069,1908.7917,875.1736,1904.625,871.0069,1908.7917,880.3819" style="stroke:#446E9B;stroke-width:3.125;"/></g><!--link Delivery to GMN45--><g class="link" data-entity-1="Delivery" data-entity-2="GMN45" data-source-line="69" data-uid="lnk47" id="link_Delivery_GMN45"><path d="M1224.0057,704.7986 C1224.0493,704.7986 1224.0931,704.7986 1224.137,704.7986 C1224.3128,704.7986 1224.4911,704.7986 1224.6719,704.7986 C1230.4557,704.7986 1238.7604,704.7986 1248.8438,704.7986" fill="none" id="Delivery-GMN45" style="stroke:#446E9B;stroke-width:3.125;stroke-dasharray:7.2917,7.2917;"/></g><!--SRC=[hLPDZzis4BthLqmtG96YLNejzb30-mcZstYHxR4NcXhBKrEaIb9st2B_lO-KB4lU3T13JgR4cSUPntbF_YvkkM4AhT9irBg84WtJojVAoZygYhFAq8tKz2mwTfwff4Kebw4emavigxng2BaxLVDBF2BLiuxAreOd0KOinsFBv7pSkg9GEZfFLpTE-Of-fllFhBieUwPRrpGI8_CLgK1vloW6UBgwjv5zwoKmFRezUwkiPdgVw_aXP-0rlJDIRsFjrP7-BUXS3rqjlDvAvBwFJxmNFlnftwkgt3hz4xNU_OMzCdgfQ_PSzP0fgO-TWtsIiAFlKyMjaLG8e8oAN8QOYgsnx05Iu3bg3dAxnO9fKUqbE7_iEmPGesm7tbMBelRA3DtTBcwABnC-xjY0DAHDhsl6nnZHat9aOzmXqpA2l8Xnz0UhvffMBLjwa4nhJa-lLmydHfsfs7fNJL1cpJolw4Uaw2qziQgmlhSrBfvzo62hXmHtcRGwM59Tt9Bl30SIIu7zNd2lsbKy92uGWCGlNwdxYMqbjXvBVdBAVgEY4zHGzjTEVrR7XcqCu_5uyOrE1zARXsyLnfEMTkDLFZ47vyVqz7yF_-sNW1EXp8FpEt8j-pn0uOosQiDbqhtTYtSsTLokZoMV7qddOUxJ4NRdPHDpwTEPVO7KlSGZfBD4UJ4jfnEB_UKTlMianADtKFg5XX-XgmC8pZEZjwnt_O6FXzlyC8z-wMUfDBndGz7jCE36rQAXiQg393NWAXAearCFcO1J8Jbr6Bq9vaT7GV9oiLXWIctqpb1hb8K5RE1hoXYgNADaeFAZkmMqLmRnCovM8-Kp2i3wS8LhqxqYu5dvAF06jqv2KMinYKAT_12WmzZaaDNwWetVUrSHgoLHJt2wKqg_jHnsBfoEuTV9dVNeOWH3H61MgJ48HHEzsGsnYwwIc9hjFRuiVvqOALqJEXTNYSOvVtSSOfW4pWqJmPxh3jQQ398_jwcmJ5enGKnvlS4ayDx9gUwaofvx4JYA-kBzIMx5HGLf3zuBv9CXKyNmoiJ0iKWxAUAac5omOONPFOYjeBnJLb4C9VRLvj7gV_ARoSG1ev-WCg1VsO0eJhEbyvGMfmOkqugXWrVlJ-fuunnC0xY4tD94h5rdA-M5yNqV-qavevvFYu6mST3EoxnpCK_pn_wMPvFo1kFpW6Agehm_AlxLphJpmhh8w2j6rv3RZ5z4Z7YM7FwIpFxgmCGypiLuXYWwN2EkF7z69OptWWy0dECW8D48_hJW0HuGSKaDgNM82GMG7pB0w7g3NGI2W-DF5xHBQnWmmvVgaxFPQlODx14cVtXIm4IA2Qbn8HgemrQbsvJwgA7Rp9v4tEM70XkKY2Z-0m00]--></g></svg>